<?xml version="1.0" encoding="UTF-8"?>
<svg id="_レイヤー_2" data-name="レイヤー 2" xmlns="http://www.w3.org/2000/svg" xmlns:xlink="http://www.w3.org/1999/xlink" viewBox="0 0 1197.40812 635.3436">
  <defs>
    <style>
      .cls-1, .cls-2, .cls-3, .cls-4, .cls-5 {
        fill: none;
      }

      .cls-6 {
        fill: url(#_新規パターンスウォッチ_23);
      }

      .cls-7 {
        fill: url(#_新規パターンスウォッチ_16);
      }

      .cls-8 {
        fill: url(#_新規パターンスウォッチ_19);
      }

      .cls-9 {
        fill: url(#_新規パターンスウォッチ_17);
      }

      .cls-10 {
        fill: url(#_新規パターンスウォッチ_15);
      }

      .cls-11 {
        fill: url(#_新規パターンスウォッチ_38);
      }

      .cls-12 {
        fill: url(#_新規パターンスウォッチ_10);
      }

      .cls-13 {
        fill: url(#_新規パターンスウォッチ_14);
      }

      .cls-14 {
        fill: url(#_新規パターンスウォッチ_27);
      }

      .cls-15 {
        clip-path: url(#clippath);
      }

      .cls-2 {
        stroke-width: 1.67934px;
      }

      .cls-2, .cls-3, .cls-4, .cls-5 {
        stroke: #fff;
      }

      .cls-16, .cls-17 {
        fill: #fff;
      }

      .cls-18 {
        fill: url(#_新規パターンスウォッチ_1);
      }

      .cls-19 {
        fill: url(#_新規パターンスウォッチ_9);
      }

      .cls-20 {
        clip-path: url(#clippath-1);
      }

      .cls-21 {
        clip-path: url(#clippath-4);
      }

      .cls-22 {
        clip-path: url(#clippath-3);
      }

      .cls-23 {
        clip-path: url(#clippath-2);
      }

      .cls-24 {
        clip-path: url(#clippath-7);
      }

      .cls-25 {
        clip-path: url(#clippath-8);
      }

      .cls-26 {
        clip-path: url(#clippath-6);
      }

      .cls-27 {
        clip-path: url(#clippath-5);
      }

      .cls-28 {
        clip-path: url(#clippath-9);
      }

      .cls-29 {
        clip-path: url(#clippath-10);
      }

      .cls-30 {
        clip-path: url(#clippath-11);
      }

      .cls-17 {
        stroke: #231815;
        stroke-width: 2.52641px;
      }

      .cls-3 {
        stroke-width: .90303px;
      }

      .cls-3, .cls-4 {
        stroke-linecap: round;
        stroke-linejoin: round;
      }

      .cls-4 {
        stroke-width: 1.3px;
      }

      .cls-5 {
        stroke-miterlimit: 10;
        stroke-width: 2.81967px;
      }
    </style>
    <clipPath id="clippath">
      <polygon class="cls-1" points="491.4551 230.64585 382.19872 230.64585 327.57053 325.26464 382.19872 419.88344 491.4551 419.88344 546.08329 325.26464 491.4551 230.64585"/>
    </clipPath>
    <pattern id="_新規パターンスウォッチ_17" data-name="新規パターンスウォッチ 17" x="0" y="0" width="25.7369" height="44.5776" patternTransform="translate(-326.86175 -541.07547) scale(.9414)" patternUnits="userSpaceOnUse" viewBox="0 0 25.7369 44.5776">
      <g>
        <rect class="cls-1" width="25.7369" height="44.5776"/>
        <polyline class="cls-4" points="0 0 25.7369 44.5776 12.8685 36.07366 12.8685 8.504 0 0"/>
        <line class="cls-4" x1="-12.8684" y1="22.2888" x2="38.6053" y2="22.2888"/>
        <line class="cls-4" x1="-.7546" y1="14.4235" x2="26.4915" y2="30.1541"/>
        <line class="cls-4" x1="-.7546" y1="30.1541" x2="26.4915" y2="14.4235"/>
        <polyline class="cls-4" points="12.8685 8.504 25.7369 0 0 0 0 44.5776 25.7369 0"/>
        <polyline class="cls-4" points="25.7369 0 25.7369 44.5776 0 44.5776 12.8685 36.07366"/>
      </g>
    </pattern>
    <clipPath id="clippath-1">
      <polygon class="cls-1" points="490.4551 42.0539 381.19872 42.0539 326.57053 136.6727 381.19872 231.2915 490.4551 231.2915 545.08329 136.6727 490.4551 42.0539"/>
    </clipPath>
    <pattern id="_新規パターンスウォッチ_10" data-name="新規パターンスウォッチ 10" x="0" y="0" width="8.70913" height="35.5256" patternTransform="translate(-191.82125 -318.46616) scale(.97906)" patternUnits="userSpaceOnUse" viewBox="0 0 8.70913 35.5256">
      <g>
        <rect class="cls-1" x="0" y="0" width="8.70913" height="35.5256"/>
        <rect class="cls-16" x=".46512" y="0" width="3.06064" height="35.5256"/>
      </g>
    </pattern>
    <clipPath id="clippath-2">
      <polygon class="cls-1" points="653.73295 135.84987 544.47657 135.84987 489.84839 230.46867 544.47657 325.08747 653.73295 325.08747 708.36114 230.46867 653.73295 135.84987"/>
    </clipPath>
    <pattern id="_新規パターンスウォッチ_14" data-name="新規パターンスウォッチ 14" x="0" y="0" width="63.2117" height="63.2118" patternTransform="translate(-551.5562 -466.06601) scale(.9414)" patternUnits="userSpaceOnUse" viewBox="0 0 63.2117 63.2118">
      <g>
        <rect class="cls-1" x="0" y="0" width="63.2117" height="63.2118"/>
        <g>
          <circle class="cls-5" cx="16.17123" cy="16.15683" r="15.46062" transform="translate(-3.27947 4.14758) rotate(-13.28249)"/>
          <circle class="cls-5" cx="31.6319" cy="31.6175" r="15.4607"/>
          <circle class="cls-5" cx="31.6319" cy=".69618" r="15.4607" transform="translate(.29693 5.07587) rotate(-9.21749)"/>
          <circle class="cls-5" cx="31.6319" cy="62.53882" r="15.46065" transform="translate(-35.48933 82.69872) rotate(-79.88756)"/>
          <circle class="cls-5" cx=".71058" cy="31.6175" r="15.46068"/>
          <circle class="cls-5" cx=".71058" cy=".69618" r="15.46066" transform="translate(-.20323 .30307) rotate(-21.13685)"/>
          <circle class="cls-5" cx=".71058" cy="62.53882" r="15.46064" transform="translate(-44.0135 18.81965) rotate(-45)"/>
          <circle class="cls-5" cx="62.55323" cy="31.6175" r="15.46066"/>
          <circle class="cls-5" cx="62.55323" cy=".69618" r="15.46064" transform="translate(17.82915 44.43571) rotate(-45)"/>
          <circle class="cls-5" cx="62.55323" cy="62.53882" r="15.46062" transform="translate(-14.99044 19.9831) rotate(-16.23556)"/>
          <circle class="cls-5" cx="47.09257" cy="16.15683" r="15.46066" transform="translate(2.3685 38.0317) rotate(-45)"/>
          <circle class="cls-5" cx="16.17123" cy="47.07818" r="15.46064" transform="translate(-28.55285 25.22366) rotate(-45)"/>
          <circle class="cls-5" cx="47.09257" cy="47.07818" r="15.46068" transform="translate(-9.5566 12.07908) rotate(-13.28256)"/>
        </g>
      </g>
    </pattern>
    <clipPath id="clippath-3">
      <polygon class="cls-1" points="816.61751 229.64585 707.36114 229.64585 652.73295 324.26464 707.36114 418.88344 816.61751 418.88344 871.2457 324.26464 816.61751 229.64585"/>
    </clipPath>
    <pattern id="_新規パターンスウォッチ_19" data-name="新規パターンスウォッチ 19" x="0" y="0" width="17.0079" height="17.0079" patternTransform="translate(6602.27202 6644.03761) scale(1.8828)" patternUnits="userSpaceOnUse" viewBox="0 0 17.0079 17.0079">
      <g>
        <rect class="cls-1" x="0" y="0" width="17.0079" height="17.0079"/>
        <rect class="cls-16" x="8.504" y="8.5039" width="8.5039" height="8.504"/>
        <rect class="cls-16" x="0" width="8.504" height="8.5039"/>
      </g>
    </pattern>
    <clipPath id="clippath-4">
      <polygon class="cls-1" points="328.17725 136.84987 218.92087 136.84987 164.29268 231.46867 218.92087 326.08747 328.17725 326.08747 382.80543 231.46867 328.17725 136.84987"/>
    </clipPath>
    <pattern id="_新規パターンスウォッチ_9" data-name="新規パターンスウォッチ 9" x="0" y="0" width="22.6772" height="22.6772" patternTransform="translate(-477.854 -618.28558) scale(.9414)" patternUnits="userSpaceOnUse" viewBox="0 0 22.6772 22.6772">
      <g>
        <rect class="cls-1" x="0" y="0" width="22.6772" height="22.6772"/>
        <g>
          <path class="cls-16" d="M11.3387,0C5.07644,0,.00003,5.0765,.00003,11.3386c8.04663-1.818,9.52051-3.2918,11.33867-11.3386Z"/>
          <path class="cls-16" d="M.00003,11.3386C.00003,17.60078,5.07644,22.6772,11.3387,22.6772,9.52054,14.63045,8.04666,13.15669,.00003,11.3386Z"/>
          <path class="cls-16" d="M22.6773,11.3386C22.6773,5.0765,17.6006,0,11.3387,0c1.8181,8.0468,3.2917,9.5206,11.3386,11.3386Z"/>
          <path class="cls-16" d="M11.3387,22.6772c6.2619,0,11.3386-5.07642,11.3386-11.3386-8.0469,1.81809-9.5205,3.29185-11.3386,11.3386Z"/>
        </g>
      </g>
    </pattern>
    <clipPath id="clippath-5">
      <polygon class="cls-1" points="653.73295 324.44182 544.47657 324.44182 489.84839 419.06062 544.47657 513.67941 653.73295 513.67941 708.36114 419.06062 653.73295 324.44182"/>
    </clipPath>
    <pattern id="_新規パターンスウォッチ_27" data-name="新規パターンスウォッチ 27" x="0" y="0" width="103.4818" height="147.49669" patternTransform="translate(-72.74765 -61.78127)" patternUnits="userSpaceOnUse" viewBox="0 0 103.4818 147.49669">
      <g>
        <rect class="cls-1" width="103.4818" height="147.49669"/>
        <polygon class="cls-16" points="5.4521 73.8409 0 63.1224 0 26.67749 5.4521 37.3958 5.4521 73.8409"/>
        <polygon class="cls-16" points="6.52375 73.8409 11.9759 63.1224 11.9759 26.67749 6.52375 37.3958 6.52375 73.8409"/>
        <rect class="cls-16" x="5.43293" y="73.8409" width="1.09082" height="37.2107"/>
        <polygon class="cls-16" points="18.5188 110.7203 13.0667 100.0019 13.0667 63.5569 18.5188 74.2752 18.5188 110.7203"/>
        <rect class="cls-16" x="18.5092" y="37.3958" width="1.0908" height="36.4451"/>
        <polygon class="cls-16" points="19.6 110.7203 25.0523 100.0019 25.0523 63.5569 19.6 74.2752 19.6 110.7203"/>
        <polygon class="cls-16" points="31.5953 73.8409 26.1432 63.1224 26.1432 26.67749 31.5953 37.3958 31.5953 73.8409"/>
        <polygon class="cls-16" points="32.6669 73.8409 38.119 63.1224 38.119 26.67749 32.6669 37.3958 32.6669 73.8409"/>
        <rect class="cls-16" x="31.5761" y="73.8409" width="1.0908" height="37.2107"/>
        <polygon class="cls-16" points="44.6619 110.7203 39.2098 100.0019 39.2098 63.5569 44.6619 74.2752 44.6619 110.7203"/>
        <rect class="cls-16" x="44.6524" y="37.3958" width="1.0908" height="36.4451"/>
        <polygon class="cls-16" points="45.7432 110.7203 51.1955 100.0019 51.1955 63.5569 45.7432 74.2752 45.7432 110.7203"/>
        <polygon class="cls-16" points="57.7384 73.8409 52.2863 63.1224 52.2863 26.67749 57.7384 37.3958 57.7384 73.8409"/>
        <polygon class="cls-16" points="58.8101 73.8409 64.2622 63.1224 64.2622 26.67749 58.8101 37.3958 58.8101 73.8409"/>
        <rect class="cls-16" x="57.7193" y="73.8409" width="1.0908" height="37.2107"/>
        <rect class="cls-16" x="83.8624" y="73.8409" width="1.0908" height="37.2107"/>
        <polygon class="cls-16" points="70.8051 110.7203 65.353 100.0019 65.353 63.5569 70.8051 74.2752 70.8051 110.7203"/>
        <rect class="cls-16" x="70.7955" y="37.3958" width="1.0908" height="36.4451"/>
        <polygon class="cls-16" points="71.8863 110.7203 77.3387 100.0019 77.3387 63.5569 71.8863 74.2752 71.8863 110.7203"/>
        <polygon class="cls-16" points="96.9483 110.7203 91.4962 100.0019 91.4962 63.5569 96.9483 74.2752 96.9483 110.7203"/>
        <rect class="cls-16" x="96.9387" y="37.3958" width="1.0908" height="36.4451"/>
        <polygon class="cls-16" points="98.0295 110.7203 103.4818 100.0019 103.4818 63.5569 98.0295 74.2752 98.0295 110.7203"/>
        <polygon class="cls-16" points="83.8816 73.8409 78.4295 63.1224 78.4295 26.67749 83.8816 37.3958 83.8816 73.8409"/>
        <polygon class="cls-16" points="84.9532 73.8409 90.4054 63.1224 90.4054 26.67749 84.9532 37.3958 84.9532 73.8409"/>
        <rect class="cls-16" x="5.43293" y="-10.2396" width="1.09082" height="47.2664"/>
        <polygon class="cls-16" points="18.5188 37.1992 13.0667 26.4807 13.0667 -9.9642 18.5188 .7541 18.5188 37.1992"/>
        <polygon class="cls-16" points="19.6 37.1992 25.0523 26.4807 25.0523 -9.9642 19.6 .7541 19.6 37.1992"/>
        <rect class="cls-16" x="31.5761" y="-10.2396" width="1.0908" height="47.2664"/>
        <polygon class="cls-16" points="44.6619 37.1992 39.2098 26.4807 39.2098 -9.9642 44.6619 .7541 44.6619 37.1992"/>
        <polygon class="cls-16" points="45.7432 37.1992 51.1955 26.4807 51.1955 -9.9642 45.7432 .7541 45.7432 37.1992"/>
        <rect class="cls-16" x="57.7193" y="-10.2396" width="1.0908" height="47.2664"/>
        <rect class="cls-16" x="83.8624" y="-10.2396" width="1.0908" height="47.2664"/>
        <polygon class="cls-16" points="70.8051 37.1992 65.353 26.4807 65.353 -9.9642 70.8051 .7541 70.8051 37.1992"/>
        <polygon class="cls-16" points="71.8863 37.1992 77.3387 26.4807 77.3387 -9.9642 71.8863 .7541 71.8863 37.1992"/>
        <polygon class="cls-16" points="96.9483 37.1992 91.4962 26.4807 91.4962 -9.9642 96.9483 .7541 96.9483 37.1992"/>
        <polygon class="cls-16" points="98.0295 37.1992 103.4818 26.4807 103.4818 -9.9642 98.0295 .7541 98.0295 37.1992"/>
        <polygon class="cls-16" points="5.4521 147.49669 0 136.77819 0 100.3333 5.4521 111.0516 5.4521 147.49669"/>
        <polygon class="cls-16" points="6.52375 147.49669 11.9759 136.77819 11.9759 100.3333 6.52375 111.0516 6.52375 147.49669"/>
        <rect class="cls-16" x="5.43293" y="147.49669" width="1.09082" height="36.9537"/>
        <polygon class="cls-16" points="18.5188 184.45039 13.0667 173.73189 13.0667 137.28699 18.5188 148.00529 18.5188 184.45039"/>
        <rect class="cls-16" x="18.5092" y="110.7203" width="1.0908" height="36.7764"/>
        <polygon class="cls-16" points="19.6 184.45039 25.0523 173.73189 25.0523 137.28699 19.6 148.00529 19.6 184.45039"/>
        <polygon class="cls-16" points="31.5953 147.49669 26.1432 136.77819 26.1432 100.3333 31.5953 111.0516 31.5953 147.49669"/>
        <polygon class="cls-16" points="32.6669 147.49669 38.119 136.77819 38.119 100.3333 32.6669 111.0516 32.6669 147.49669"/>
        <rect class="cls-16" x="31.5761" y="147.49669" width="1.0908" height="36.9537"/>
        <polygon class="cls-16" points="44.6619 184.45039 39.2098 173.73189 39.2098 137.28699 44.6619 148.00529 44.6619 184.45039"/>
        <rect class="cls-16" x="44.6524" y="110.7203" width="1.0908" height="36.7764"/>
        <polygon class="cls-16" points="45.7432 184.45039 51.1955 173.73189 51.1955 137.28699 45.7432 148.00529 45.7432 184.45039"/>
        <polygon class="cls-16" points="57.7384 147.49669 52.2863 136.77819 52.2863 100.3333 57.7384 111.0516 57.7384 147.49669"/>
        <polygon class="cls-16" points="58.8101 147.49669 64.2622 136.77819 64.2622 100.3333 58.8101 111.0516 58.8101 147.49669"/>
        <rect class="cls-16" x="57.7193" y="147.49669" width="1.0908" height="36.9537"/>
        <polygon class="cls-16" points="70.8051 184.45039 65.353 173.73189 65.353 137.28699 70.8051 148.00529 70.8051 184.45039"/>
        <rect class="cls-16" x="70.7955" y="110.7203" width="1.0908" height="36.7764"/>
        <polygon class="cls-16" points="71.8863 184.45039 77.3387 173.73189 77.3387 137.28699 71.8863 148.00529 71.8863 184.45039"/>
        <polygon class="cls-16" points="96.9483 184.45039 91.4962 173.73189 91.4962 137.28699 96.9483 148.00529 96.9483 184.45039"/>
        <rect class="cls-16" x="96.9387" y="110.7203" width="1.0908" height="36.7764"/>
        <polygon class="cls-16" points="98.0295 184.45039 103.4818 173.73189 103.4818 137.28699 98.0295 148.00529 98.0295 184.45039"/>
        <polygon class="cls-16" points="83.8816 147.49669 78.4295 136.77819 78.4295 100.3333 83.8816 111.0516 83.8816 147.49669"/>
        <polygon class="cls-16" points="84.9532 147.49669 90.4054 136.77819 90.4054 100.3333 84.9532 111.0516 84.9532 147.49669"/>
        <polygon class="cls-16" points="5.4521 221.15249 0 210.43399 0 173.98909 5.4521 184.70739 5.4521 221.15249"/>
        <polygon class="cls-16" points="6.52375 221.15249 11.9759 210.43399 11.9759 173.98909 6.52375 184.70739 6.52375 221.15249"/>
        <rect class="cls-16" x="18.5092" y="184.37609" width="1.0908" height="36.7764"/>
        <polygon class="cls-16" points="31.5953 221.15249 26.1432 210.43399 26.1432 173.98909 31.5953 184.70739 31.5953 221.15249"/>
        <polygon class="cls-16" points="32.6669 221.15249 38.119 210.43399 38.119 173.98909 32.6669 184.70739 32.6669 221.15249"/>
        <rect class="cls-16" x="44.6524" y="184.37609" width="1.0908" height="36.7764"/>
        <polygon class="cls-16" points="57.7384 221.15249 52.2863 210.43399 52.2863 173.98909 57.7384 184.70739 57.7384 221.15249"/>
        <polygon class="cls-16" points="58.8101 221.15249 64.2622 210.43399 64.2622 173.98909 58.8101 184.70739 58.8101 221.15249"/>
        <rect class="cls-16" x="70.7955" y="184.37609" width="1.0908" height="36.7764"/>
        <rect class="cls-16" x="96.9387" y="184.37609" width="1.0908" height="36.7764"/>
        <polygon class="cls-16" points="83.8816 221.15249 78.4295 210.43399 78.4295 173.98909 83.8816 184.70739 83.8816 221.15249"/>
        <polygon class="cls-16" points="84.9532 221.15249 90.4054 210.43399 90.4054 173.98909 84.9532 184.70739 84.9532 221.15249"/>
        <rect class="cls-16" x="83.8624" y="147.49669" width="1.0908" height="36.9537"/>
      </g>
    </pattern>
    <clipPath id="clippath-6">
      <polygon class="cls-1" points="816.61751 418.23779 707.36114 418.23779 652.73295 512.85659 707.36114 607.47539 816.61751 607.47539 871.2457 512.85659 816.61751 418.23779"/>
    </clipPath>
    <pattern id="_新規パターンスウォッチ_15" data-name="新規パターンスウォッチ 15" x="0" y="0" width="59.33786" height="59.5442" patternTransform="translate(-416.50975 -516.8398) scale(.9414)" patternUnits="userSpaceOnUse" viewBox="0 0 59.33786 59.5442">
      <g>
        <rect class="cls-1" width="59.33786" height="59.5442"/>
        <g>
          <path class="cls-16" d="M16.83866,24.6651h0c.4033,0,.7779-.2135,.9664-.6024h0c.2541-.5369,.0393-1.1813-.4963-1.4353h0c-.5369-.2554-1.1799-.0275-1.4353,.5094h0c-.254,.5225-.0406,1.1668,.4964,1.4209,.161,.0812,.3077,.1074,.4688,.1074Z"/>
          <path class="cls-16" d="M18.54236,21.97h0c.3078,0,.6168-.1336,.8316-.4021h0c.3745-.4688,.2947-1.1393-.1611-1.502h0c-.4701-.3759-1.1406-.2947-1.5151,.161h0c-.3628,.4689-.296,1.1394,.1741,1.5152,.1873,.1611,.4296,.2279,.6705,.2279Z"/>
          <path class="cls-16" d="M20.79486,19.7175h0c.2279,0,.4701-.0668,.6705-.2278h0c.4557-.3759,.5369-1.0464,.1611-1.5152h0c-.3615-.4571-1.0464-.5369-1.5021-.1611h0c-.4688,.3614-.5356,1.0319-.1742,1.5021,.2148,.2671,.5225,.402,.8447,.402Z"/>
          <path class="cls-16" d="M23.48996,18.0282h0c.1611,0,.3221-.0406,.4701-.1074v-.0144c.5356-.2541,.7504-.8984,.4964-1.4209h0c-.2554-.5369-.8984-.7648-1.4353-.4963h0c-.537,.2553-.7504,.8983-.4964,1.4222,.1873,.3889,.5632,.6168,.9652,.6168Z"/>
          <path class="cls-16" d="M42.96806,24.5577c.5369-.2541,.7504-.8984,.4963-1.4209h0c-.2553-.5369-.8983-.7648-1.4353-.5094h0c-.5356,.254-.7503,.8984-.4963,1.4353h0c.1886,.3889,.5631,.6024,.9665,.6024h0c.1611,0,.3077-.0262,.4688-.1074Z"/>
          <path class="cls-16" d="M41.46596,21.7421c.4702-.3758,.537-1.0463,.1742-1.5152h0c-.3745-.4557-1.045-.5369-1.5152-.161h0c-.4557,.3627-.5356,1.0332-.161,1.502h0c.2147,.2685,.5238,.4021,.8315,.4021h0c.241,0,.4833-.0668,.6705-.2279Z"/>
          <path class="cls-16" d="M39.38766,19.3155c.3615-.4702,.2947-1.1407-.1741-1.5021h0c-.4558-.3758-1.1407-.296-1.5021,.1611h0c-.3759,.4688-.2947,1.1393,.1611,1.5152h0c.2003,.161,.4426,.2278,.6705,.2278h0c.3221,0,.6299-.1349,.8446-.402Z"/>
          <path class="cls-16" d="M36.81306,17.4114c.2541-.5239,.0406-1.1669-.4963-1.4222h0c-.5369-.2685-1.1799-.0406-1.4353,.4963h0c-.254,.5225-.0393,1.1668,.4963,1.4209v.0144c.148,.0668,.3091,.1074,.4702,.1074h0c.402,0,.7779-.2279,.9651-.6168Z"/>
          <path class="cls-16" d="M42.49926,34.9017h0c-.4034,0-.7779,.2135-.9665,.6024h0c-.254,.5369-.0393,1.1813,.4963,1.4353h0c.537,.2554,1.18,.0275,1.4353-.5094h0c.2541-.5225,.0406-1.1668-.4963-1.4209-.1611-.0812-.3077-.1074-.4688-.1074Z"/>
          <path class="cls-16" d="M40.79546,37.5968h0c-.3077,0-.6168,.1336-.8315,.4021h0c-.3746,.4688-.2947,1.1393,.161,1.502h0c.4702,.3759,1.1407,.2947,1.5152-.161h0c.3628-.4689,.296-1.1394-.1742-1.5152-.1872-.1611-.4295-.2279-.6705-.2279Z"/>
          <path class="cls-16" d="M38.54306,39.8493h0c-.2279,0-.4702,.0668-.6705,.2278h0c-.4558,.3759-.537,1.0464-.1611,1.5152h0c.3614,.4571,1.0463,.5369,1.5021,.1611h0c.4688-.3614,.5356-1.0319,.1741-1.5021-.2147-.2671-.5225-.402-.8446-.402Z"/>
          <path class="cls-16" d="M35.84796,41.5386h0c-.1611,0-.3222,.0406-.4702,.1074v.0144c-.5356,.2541-.7503,.8984-.4963,1.4209h0c.2554,.5369,.8984,.7648,1.4353,.4963h0c.5369-.2553,.7504-.8983,.4963-1.4222-.1872-.3889-.5631-.6168-.9651-.6168Z"/>
          <path class="cls-16" d="M16.36986,35.0091c-.537,.2541-.7504,.8984-.4964,1.4209h0c.2554,.5369,.8984,.7648,1.4353,.5094h0c.5356-.254,.7504-.8984,.4963-1.4353h0c-.1885-.3889-.5631-.6024-.9664-.6024h0c-.1611,0-.3078,.0262-.4688,.1074Z"/>
          <path class="cls-16" d="M17.87186,37.8247c-.4701,.3758-.5369,1.0463-.1741,1.5152h0c.3745,.4557,1.045,.5369,1.5151,.161h0c.4558-.3627,.5356-1.0332,.1611-1.502h0c-.2148-.2685-.5238-.4021-.8316-.4021h0c-.2409,0-.4832,.0668-.6705,.2279Z"/>
          <path class="cls-16" d="M19.95016,40.2513c-.3614,.4702-.2946,1.1407,.1742,1.5021h0c.4557,.3758,1.1406,.296,1.5021-.1611h0c.3758-.4688,.2946-1.1393-.1611-1.5152h0c-.2004-.161-.4426-.2278-.6705-.2278h0c-.3222,0-.6299,.1349-.8447,.402Z"/>
          <path class="cls-16" d="M22.52476,42.1554c-.254,.5239-.0406,1.1669,.4964,1.4222h0c.5369,.2685,1.1799,.0406,1.4353-.4963h0c.254-.5225,.0392-1.1668-.4964-1.4209v-.0144c-.148-.0668-.309-.1074-.4701-.1074h0c-.402,0-.7779,.2279-.9652,.6168Z"/>
          <path class="cls-16" d="M15.68926,27.6561c.5763-.1335,.9377-.7111,.8041-1.2873h0c-.1336-.5762-.6967-.9389-1.2742-.8054h0c-.5762,.1349-.939,.698-.8172,1.2887h0c.1205,.495,.5631,.8302,1.0451,.8302h0c.0812,0,.161-.0131,.2422-.0262Z"/>
          <path class="cls-16" d="M14.49066,24.5577c.537-.2541,.7504-.8984,.4964-1.4209h0c-.2554-.5369-.8984-.7648-1.4353-.5094h0c-.5356,.254-.7504,.8984-.4964,1.4353h0c.1886,.3889,.5632,.6024,.9665,.6024h0c.1611,0,.3078-.0262,.4688-.1074Z"/>
          <path class="cls-16" d="M12.98866,21.7421c.4701-.3758,.5369-1.0463,.1741-1.5152h0c-.3745-.4557-1.045-.5369-1.5151-.161h0c-.4558,.3627-.5357,1.0332-.1611,1.502h0c.2147,.2685,.5238,.4021,.8316,.4021h0c.2409,0,.4832-.0668,.6705-.2279Z"/>
          <path class="cls-16" d="M10.91036,19.3155c.3614-.4702,.2946-1.1407-.1742-1.5021h0c-.4557-.3758-1.14065-.296-1.50209,.1611h0c-.37584,.4688-.29465,1.1393,.16108,1.5152h0c.20036,.161,.44263,.2278,.67051,.2278h0c.3221,0,.6299-.1349,.8447-.402Z"/>
          <path class="cls-16" d="M8.33571,17.4114c.25405-.5239,.04059-1.1669-.49633-1.4222h0c-.53693-.2685-1.17992-.0406-1.43529,.4963h0c-.25406,.5225-.03929,1.1668,.49633,1.4209v.0144c.14798,.0668,.30905,.1074,.47013,.1074h0c.40204,0,.77789-.2279,.96516-.6168Z"/>
          <path class="cls-16" d="M15.44706,31.8845h0c-.482,0-.9246,.3352-1.0451,.8302h0c-.1218,.5907,.241,1.1538,.8172,1.2887h0c.5775,.1335,1.1406-.2292,1.2742-.8054h0c.1336-.5762-.2278-1.1538-.8041-1.2873-.0812-.0131-.161-.0262-.2422-.0262Z"/>
          <path class="cls-16" d="M14.02186,34.9017h0c-.4033,0-.7779,.2135-.9665,.6024h0c-.254,.5369-.0392,1.1813,.4964,1.4353h0c.5369,.2554,1.1799,.0275,1.4353-.5094h0c.254-.5225,.0406-1.1668-.4964-1.4209-.161-.0812-.3077-.1074-.4688-.1074Z"/>
          <path class="cls-16" d="M12.31816,37.5968h0c-.3078,0-.6169,.1336-.8316,.4021h0c-.3746,.4688-.2947,1.1393,.1611,1.502h0c.4701,.3759,1.1406,.2947,1.5151-.161h0c.3628-.4689,.296-1.1394-.1741-1.5152-.1873-.1611-.4296-.2279-.6705-.2279Z"/>
          <path class="cls-16" d="M10.06566,39.8493h0c-.22788,0-.47015,.0668-.67051,.2278h0c-.45573,.3759-.53692,1.0464-.16108,1.5152h0c.36144,.4571,1.04639,.5369,1.50209,.1611h0c.4688-.3614,.5356-1.0319,.1742-1.5021-.2148-.2671-.5226-.402-.8447-.402Z"/>
          <path class="cls-16" d="M7.37055,41.5386h0c-.16108,0-.32215,.0406-.47013,.1074v.0144c-.53562,.2541-.75039,.8984-.49633,1.4209h0c.25537,.5369,.89836,.7648,1.43529,.4963h0c.53692-.2553,.75038-.8983,.49633-1.4222-.18727-.3889-.56312-.6168-.96516-.6168Z"/>
          <path class="cls-16" d="M43.98126,27.6823h0c.4819,0,.9246-.3352,1.045-.8302h0c.1218-.5907-.2409-1.1538-.8171-1.2887h0c-.5776-.1335-1.1407,.2292-1.2743,.8054h0c-.1335,.5762,.2279,1.1538,.8041,1.2873,.0812,.0131,.1611,.0262,.2423,.0262Z"/>
          <path class="cls-16" d="M45.40646,24.6651h0c.4033,0,.7778-.2135,.9664-.6024h0c.2541-.5369,.0393-1.1813-.4963-1.4353h0c-.5369-.2554-1.1799-.0275-1.4353,.5094h0c-.2541,.5225-.0406,1.1668,.4963,1.4209,.1611,.0812,.3078,.1074,.4689,.1074Z"/>
          <path class="cls-16" d="M47.11016,21.97h0c.3078,0,.6168-.1336,.8316-.4021h0c.3745-.4688,.2946-1.1393-.1611-1.502h0c-.4701-.3759-1.1406-.2947-1.5152,.161h0c-.3627,.4689-.2959,1.1394,.1742,1.5152,.1873,.1611,.4296,.2279,.6705,.2279Z"/>
          <path class="cls-16" d="M49.36266,19.7175h0c.2278,0,.4701-.0668,.6705-.2278h0c.4557-.3759,.5369-1.0464,.1611-1.5152h0c-.3615-.4571-1.0464-.5369-1.5021-.1611h0c-.4689,.3614-.5356,1.0319-.1742,1.5021,.2148,.2671,.5225,.402,.8447,.402Z"/>
          <path class="cls-16" d="M52.05776,18.0282h0c.161,0,.3221-.0406,.4701-.1074v-.0144c.5356-.2541,.7504-.8984,.4963-1.4209h0c-.2553-.5369-.8983-.7648-1.4353-.4963h0c-.5369,.2553-.7503,.8983-.4963,1.4222,.1873,.3889,.5631,.6168,.9652,.6168Z"/>
          <path class="cls-16" d="M43.73896,31.9107c-.5762,.1335-.9376,.7111-.8041,1.2873h0c.1336,.5762,.6967,.9389,1.2743,.8054h0c.5762-.1349,.9389-.698,.8171-1.2887h0c-.1204-.495-.5631-.8302-1.045-.8302h0c-.0812,0-.1611,.0131-.2423,.0262Z"/>
          <path class="cls-16" d="M44.93756,35.0091c-.5369,.2541-.7504,.8984-.4963,1.4209h0c.2554,.5369,.8984,.7648,1.4353,.5094h0c.5356-.254,.7504-.8984,.4963-1.4353h0c-.1886-.3889-.5631-.6024-.9664-.6024h0c-.1611,0-.3078,.0262-.4689,.1074Z"/>
          <path class="cls-16" d="M46.43966,37.8247c-.4701,.3758-.5369,1.0463-.1742,1.5152h0c.3746,.4557,1.0451,.5369,1.5152,.161h0c.4557-.3627,.5356-1.0332,.1611-1.502h0c-.2148-.2685-.5238-.4021-.8316-.4021h0c-.2409,0-.4832,.0668-.6705,.2279Z"/>
          <path class="cls-16" d="M48.51796,40.2513c-.3614,.4702-.2947,1.1407,.1742,1.5021h0c.4557,.3758,1.1406,.296,1.5021-.1611h0c.3758-.4688,.2946-1.1393-.1611-1.5152h0c-.2004-.161-.4427-.2278-.6705-.2278h0c-.3222,0-.6299,.1349-.8447,.402Z"/>
          <path class="cls-16" d="M51.09256,42.1554c-.254,.5239-.0406,1.1669,.4963,1.4222h0c.537,.2685,1.18,.0406,1.4353-.4963h0c.2541-.5225,.0393-1.1668-.4963-1.4209v-.0144c-.148-.0668-.3091-.1074-.4701-.1074h0c-.4021,0-.7779,.2279-.9652,.6168Z"/>
          <path class="cls-16" d="M14.49066,53.03507c.537-.25405,.7504-.89836,.4964-1.42088h0c-.2554-.53693-.8984-.76479-1.4353-.50942h0c-.5356,.25405-.7504,.89836-.4964,1.43529h0c.1886,.38894,.5632,.6024,.9665,.6024h0c.1611,0,.3078-.02619,.4688-.10739Z"/>
          <path class="cls-16" d="M12.98866,50.2195c.4701-.37585,.5369-1.0464,.1741-1.5152h0c-.3745-.4557-1.045-.5369-1.5151-.1611h0c-.4558,.3628-.5357,1.0333-.1611,1.50212h0c.2147,.26846,.5238,.40204,.8316,.40204h0c.2409,0,.4832-.06679,.6705-.22786Z"/>
          <path class="cls-16" d="M10.91036,47.7929c.3614-.4702,.2946-1.1407-.1742-1.5021h0c-.4557-.3759-1.14065-.296-1.50209,.1611h0c-.37584,.4688-.29465,1.1393,.16108,1.5151h0c.20036,.1611,.44263,.2279,.67051,.2279h0c.3221,0,.6299-.1349,.8447-.402Z"/>
          <path class="cls-16" d="M8.33571,45.8887c.25405-.5238,.04059-1.1668-.49633-1.4222h0c-.53693-.2684-1.17992-.0405-1.43529,.4964h0c-.25406,.5225-.03929,1.1668,.49633,1.4209v.0144c.14798,.0668,.30905,.1074,.47013,.1074h0c.40204,0,.77789-.2279,.96516-.6169Z"/>
          <path class="cls-16" d="M5.41274,44.2344c.13358-.5906-.22917-1.1668-.81848-1.2873h0c-.57621-.1349-1.13933,.2279-1.27421,.8041h0c-.13358,.5762,.22786,1.1537,.80538,1.2873h0c.07989,.0131,.15977,.0275,.24097,.0275h0c.48192,0,.92455-.3353,1.04634-.8316Z"/>
          <path class="cls-16" d="M45.40646,53.14246h0c.4033,0,.7778-.21346,.9664-.6024h0c.2541-.53693,.0393-1.18124-.4963-1.43529h0c-.5369-.25537-1.1799-.02751-1.4353,.50942h0c-.2541,.52252-.0406,1.16683,.4963,1.42088,.1611,.0812,.3078,.10739,.4689,.10739Z"/>
          <path class="cls-16" d="M47.11016,50.44736h0c.3078,0,.6168-.13358,.8316-.40204h0c.3745-.46882,.2946-1.13932-.1611-1.50212h0c-.4701-.3758-1.1406-.2946-1.5152,.1611h0c-.3627,.4688-.2959,1.13935,.1742,1.5152,.1873,.16107,.4296,.22786,.6705,.22786Z"/>
          <path class="cls-16" d="M49.36266,48.1949h0c.2278,0,.4701-.0668,.6705-.2279h0c.4557-.3758,.5369-1.0463,.1611-1.5151h0c-.3615-.4571-1.0464-.537-1.5021-.1611h0c-.4689,.3614-.5356,1.0319-.1742,1.5021,.2148,.2671,.5225,.402,.8447,.402Z"/>
          <path class="cls-16" d="M52.05776,46.5056h0c.161,0,.3221-.0406,.4701-.1074v-.0144c.5356-.2541,.7504-.8984,.4963-1.4209h0c-.2553-.5369-.8983-.7648-1.4353-.4964h0c-.5369,.2554-.7503,.8984-.4963,1.4222,.1873,.389,.5631,.6169,.9652,.6169Z"/>
          <path class="cls-16" d="M55.06186,45.066h0c.0812,0,.1611-.0144,.241-.0275h0c.5775-.1336,.939-.7111,.8054-1.2873h0c-.1349-.5762-.698-.939-1.2742-.8041h0c-.5893,.1205-.9521,.6967-.8185,1.2873,.1218,.4963,.5644,.8316,1.0463,.8316Z"/>
          <path class="cls-16" d="M42.49926,6.4243h0c-.4034,0-.7779,.2135-.9665,.6024h0c-.254,.537-.0393,1.1813,.4963,1.4353h0c.537,.2554,1.18,.0275,1.4353-.5094h0c.2541-.5225,.0406-1.1668-.4963-1.4209-.1611-.0812-.3077-.1074-.4688-.1074Z"/>
          <path class="cls-16" d="M40.79546,9.1194h0c-.3077,0-.6168,.1336-.8315,.4021h0c-.3746,.4688-.2947,1.1393,.161,1.5021h0c.4702,.3758,1.1407,.2946,1.5152-.1611h0c.3628-.4688,.296-1.1393-.1742-1.5152-.1872-.1611-.4295-.2279-.6705-.2279Z"/>
          <path class="cls-16" d="M38.54306,11.3719h0c-.2279,0-.4702,.0668-.6705,.2279h0c-.4558,.3758-.537,1.0463-.1611,1.5151h0c.3614,.4571,1.0463,.537,1.5021,.1611h0c.4688-.3614,.5356-1.0319,.1741-1.5021-.2147-.2671-.5225-.402-.8446-.402Z"/>
          <path class="cls-16" d="M35.84796,13.0612h0c-.1611,0-.3222,.0406-.4702,.1074v.0144c-.5356,.2541-.7503,.8984-.4963,1.4209h0c.2554,.5369,.8984,.7648,1.4353,.4964h0c.5369-.2554,.7504-.8984,.4963-1.4222-.1872-.389-.5631-.6169-.9651-.6169Z"/>
          <path class="cls-16" d="M32.84376,14.5008h0c-.0812,0-.1611,.0144-.2409,.0275h0c-.5776,.1336-.939,.7111-.8054,1.2873h0c.1349,.5762,.698,.939,1.2742,.8041h0c.5893-.1205,.952-.6967,.8185-1.2873-.1218-.4963-.5645-.8316-1.0464-.8316Z"/>
          <path class="cls-16" d="M16.36986,6.5317c-.537,.2541-.7504,.8984-.4964,1.4209h0c.2554,.5369,.8984,.7648,1.4353,.5094h0c.5356-.254,.7504-.8983,.4963-1.4353h0c-.1885-.3889-.5631-.6024-.9664-.6024h0c-.1611,0-.3078,.0262-.4688,.1074Z"/>
          <path class="cls-16" d="M17.87186,9.3473c-.4701,.3759-.5369,1.0464-.1741,1.5152h0c.3745,.4557,1.045,.5369,1.5151,.1611h0c.4558-.3628,.5356-1.0333,.1611-1.5021h0c-.2148-.2685-.5238-.4021-.8316-.4021h0c-.2409,0-.4832,.0668-.6705,.2279Z"/>
          <path class="cls-16" d="M19.95016,11.7739c-.3614,.4702-.2946,1.1407,.1742,1.5021h0c.4557,.3759,1.1406,.296,1.5021-.1611h0c.3758-.4688,.2946-1.1393-.1611-1.5151h0c-.2004-.1611-.4426-.2279-.6705-.2279h0c-.3222,0-.6299,.1349-.8447,.402Z"/>
          <path class="cls-16" d="M22.52476,13.6781c-.254,.5238-.0406,1.1668,.4964,1.4222h0c.5369,.2684,1.1799,.0405,1.4353-.4964h0c.254-.5225,.0392-1.1668-.4964-1.4209v-.0144c-.148-.0668-.309-.1074-.4701-.1074h0c-.402,0-.7779,.2279-.9652,.6169Z"/>
          <path class="cls-16" d="M25.44776,15.3324c-.1336,.5906,.2292,1.1668,.8185,1.2873h0c.5762,.1349,1.1393-.2279,1.2742-.8041h0c.1336-.5762-.2279-1.1537-.8054-1.2873h0c-.0799-.0131-.1598-.0275-.241-.0275h0c-.4819,0-.9245,.3353-1.0463,.8316Z"/>
          <path class="cls-16" d="M29.67246,14.4703c-.2816,0-.55,.1205-.7648,.3209-.093,.0943-.1742,.2148-.2279,.3496-.0537,.1336-.0799,.2672-.0799,.4021,0,.2946,.1205,.5631,.3078,.7635,.4033,.4033,1.1275,.4033,1.5296,0,.1872-.2004,.3077-.4689,.3077-.7635,0-.2816-.1074-.55-.3077-.7517-.1074-.1074-.2279-.1742-.3497-.2279-.1336-.0668-.2671-.093-.4151-.093Z"/>
          <path class="cls-16" d="M15.44706,3.4071h0c-.482,0-.9246,.3352-1.0451,.8303h0c-.1218,.5906,.241,1.1537,.8172,1.2886h0c.5775,.1336,1.1406-.2292,1.2742-.8054h0c.1336-.5762-.2278-1.1537-.8041-1.2873-.0812-.0131-.161-.0262-.2422-.0262Z"/>
          <path class="cls-16" d="M14.02186,6.4243h0c-.4033,0-.7779,.2135-.9665,.6024h0c-.254,.537-.0392,1.1813,.4964,1.4353h0c.5369,.2554,1.1799,.0275,1.4353-.5094h0c.254-.5225,.0406-1.1668-.4964-1.4209-.161-.0812-.3077-.1074-.4688-.1074Z"/>
          <path class="cls-16" d="M12.31816,9.1194h0c-.3078,0-.6169,.1336-.8316,.4021h0c-.3746,.4688-.2947,1.1393,.1611,1.5021h0c.4701,.3758,1.1406,.2946,1.5151-.1611h0c.3628-.4688,.296-1.1393-.1741-1.5152-.1873-.1611-.4296-.2279-.6705-.2279Z"/>
          <path class="cls-16" d="M10.06566,11.3719h0c-.22788,0-.47015,.0668-.67051,.2279h0c-.45573,.3758-.53692,1.0463-.16108,1.5151h0c.36144,.4571,1.04639,.537,1.50209,.1611h0c.4688-.3614,.5356-1.0319,.1742-1.5021-.2148-.2671-.5226-.402-.8447-.402Z"/>
          <path class="cls-16" d="M7.37055,13.0612h0c-.16108,0-.32215,.0406-.47013,.1074v.0144c-.53562,.2541-.75039,.8984-.49633,1.4209h0c.25537,.5369,.89836,.7648,1.43529,.4964h0c.53692-.2554,.75038-.8984,.49633-1.4222-.18727-.389-.56312-.6169-.96516-.6169Z"/>
          <path class="cls-16" d="M4.3664,14.5008h0c-.0812,0-.16108,.0144-.24097,.0275h0c-.57752,.1336-.93896,.7111-.80538,1.2873h0c.13488,.5762,.698,.939,1.27421,.8041h0c.58931-.1205,.95206-.6967,.81848-1.2873-.12179-.4963-.56442-.8316-1.04634-.8316Z"/>
          <path class="cls-16" d="M43.73896,3.4333c-.5762,.1336-.9376,.7111-.8041,1.2873h0c.1336,.5762,.6967,.939,1.2743,.8054h0c.5762-.1349,.9389-.698,.8171-1.2886h0c-.1204-.4951-.5631-.8303-1.045-.8303h0c-.0812,0-.1611,.0131-.2423,.0262Z"/>
          <path class="cls-16" d="M44.93756,6.5317c-.5369,.2541-.7504,.8984-.4963,1.4209h0c.2554,.5369,.8984,.7648,1.4353,.5094h0c.5356-.254,.7504-.8983,.4963-1.4353h0c-.1886-.3889-.5631-.6024-.9664-.6024h0c-.1611,0-.3078,.0262-.4689,.1074Z"/>
          <path class="cls-16" d="M46.43966,9.3473c-.4701,.3759-.5369,1.0464-.1742,1.5152h0c.3746,.4557,1.0451,.5369,1.5152,.1611h0c.4557-.3628,.5356-1.0333,.1611-1.5021h0c-.2148-.2685-.5238-.4021-.8316-.4021h0c-.2409,0-.4832,.0668-.6705,.2279Z"/>
          <path class="cls-16" d="M48.51796,11.7739c-.3614,.4702-.2947,1.1407,.1742,1.5021h0c.4557,.3759,1.1406,.296,1.5021-.1611h0c.3758-.4688,.2946-1.1393-.1611-1.5151h0c-.2004-.1611-.4427-.2279-.6705-.2279h0c-.3222,0-.6299,.1349-.8447,.402Z"/>
          <path class="cls-16" d="M51.09256,13.6781c-.254,.5238-.0406,1.1668,.4963,1.4222h0c.537,.2684,1.18,.0405,1.4353-.4964h0c.2541-.5225,.0393-1.1668-.4963-1.4209v-.0144c-.148-.0668-.3091-.1074-.4701-.1074h0c-.4021,0-.7779,.2279-.9652,.6169Z"/>
          <path class="cls-16" d="M54.01556,15.3324c-.1336,.5906,.2292,1.1668,.8185,1.2873h0c.5762,.1349,1.1393-.2279,1.2742-.8041h0c.1336-.5762-.2279-1.1537-.8054-1.2873h0c-.0799-.0131-.1598-.0275-.241-.0275h0c-.4819,0-.9245,.3353-1.0463,.8316Z"/>
          <path class="cls-16" d="M1.19216,16.5637c-.13358,0-.28156-.0262-.40204-.0799-.13358-.0537-.25537-.1349-.34835-.2279-.10738-.1074-.18858-.2147-.24227-.3496-.05369-.1336-.07988-.2685-.07988-.4152,0-.2815,.12048-.55,.32215-.7517,.38894-.402,1.11314-.402,1.51518,0,.20036,.2017,.30775,.4702,.30775,.7517,0,.1467-.02619,.2816-.07989,.4152-.05369,.1349-.13357,.2422-.22786,.3496-.10739,.093-.21477,.1742-.34835,.2279-.13488,.0537-.26846,.0799-.41644,.0799Z"/>
          <path class="cls-16" d="M1.17478,13.3984h0c.48193,0,.92456-.3352,1.04504-.8302h0c.12179-.5906-.24096-1.1538-.81717-1.2886h0c-.57752-.1336-1.14064,.2291-1.27421,.8053H.12844c-.13358,.5763,.22787,1.1538,.80408,1.2873,.0812,.0131,.16108,.0262,.24227,.0262Z"/>
          <path class="cls-16" d="M2.59995,10.3812h0c.40335,0,.77788-.2135,.96646-.6024h0c.25406-.5369,.03929-1.1812-.49633-1.4353h0c-.53692-.2554-1.17992-.0275-1.43529,.5094h0c-.25405,.5225-.04059,1.1668,.49633,1.4209,.16108,.0812,.30775,.1074,.46883,.1074Z"/>
          <path class="cls-16" d="M4.3037,7.6861h0c.30775,0,.61681-.1336,.83158-.402h0c.37454-.4689,.29465-1.1394-.16108-1.5021h0c-.47014-.3759-1.14064-.2947-1.51517,.1611h0c-.36275,.4688-.29597,1.1393,.17417,1.5151,.18727,.1611,.42954,.2279,.6705,.2279Z"/>
          <path class="cls-16" d="M6.55616,5.4336h0c.22787,0,.47014-.0668,.6705-.2278h0c.45573-.3759,.53693-1.0464,.16108-1.5152h0c-.36144-.4571-1.04635-.5369-1.50208-.1611h0c-.46882,.3615-.53561,1.032-.17417,1.5021,.21477,.2671,.52252,.402,.84467,.402Z"/>
          <path class="cls-16" d="M9.25126,3.7443h0c.16108,0,.32215-.0406,.47014-.1074v-.0144c.53566-.2541,.75036-.8984,.49636-1.4209h0c-.2554-.5369-.8984-.7648-1.43533-.4963h0c-.53692,.2553-.75038,.8983-.49632,1.4222,.18726,.3889,.56311,.6168,.96515,.6168Z"/>
          <path class="cls-16" d="M12.25546,2.3047h0c.0811,0,.161-.0144,.2409-.0275h0c.5775-.1336,.939-.7111,.8054-1.2873h0c-.1349-.5762-.698-.939-1.2742-.8041h0c-.5893,.1205-.9521,.6967-.8185,1.2873,.1218,.4964,.5644,.8316,1.0464,.8316Z"/>
          <path class="cls-16" d="M15.43376,2.3352c-.2816,0-.55-.1205-.7648-.3209-.093-.0943-.1742-.2147-.2279-.3496-.0537-.1336-.0799-.2672-.0799-.4021,0-.2946,.1205-.5631,.3078-.7634,.4033-.4034,1.1275-.4034,1.5296,0,.1872,.2003,.3077,.4688,.3077,.7634,0,.2816-.1074,.5501-.3077,.7517-.1074,.1074-.2279,.1742-.3497,.2279-.1336,.0668-.2671,.093-.4151,.093Z"/>
          <path class="cls-16" d="M28.72936,10.2738c.5369-.2541,.7504-.8984,.4963-1.4209h0c-.2553-.5369-.8983-.7648-1.4352-.5094h0c-.5357,.2541-.7504,.8984-.4964,1.4353h0c.1886,.3889,.5631,.6024,.9665,.6024h0c.1611,0,.3077-.0262,.4688-.1074Z"/>
          <path class="cls-16" d="M27.22726,7.4582c.4702-.3758,.537-1.0463,.1742-1.5151h0c-.3745-.4558-1.045-.537-1.5152-.1611h0c-.4557,.3627-.5356,1.0332-.161,1.5021h0c.2147,.2684,.5238,.402,.8315,.402h0c.241,0,.4833-.0668,.6705-.2279Z"/>
          <path class="cls-16" d="M25.14906,5.0316c.3614-.4701,.2946-1.1406-.1742-1.5021h0c-.4558-.3758-1.1407-.296-1.5021,.1611h0c-.3758,.4688-.2947,1.1393,.1611,1.5152h0c.2003,.161,.4426,.2278,.6705,.2278h0c.3221,0,.6299-.1349,.8447-.402Z"/>
          <path class="cls-16" d="M22.57436,3.1275c.2541-.5239,.0406-1.1669-.4963-1.4222h0c-.5369-.2685-1.1799-.0406-1.4353,.4963h0c-.254,.5225-.0393,1.1668,.4963,1.4209v.0144c.148,.0668,.3091,.1074,.4702,.1074h0c.402,0,.7779-.2279,.9651-.6168Z"/>
          <path class="cls-16" d="M19.65146,1.4731c.1335-.5906-.2292-1.1668-.8185-1.2873h0c-.5762-.1349-1.1393,.2279-1.2742,.8041h0c-.1336,.5762,.2278,1.1537,.8054,1.2873h0c.0798,.0131,.1597,.0275,.2409,.0275h0c.4819,0,.9246-.3352,1.0464-.8316Z"/>
          <path class="cls-16" d="M28.26056,20.6178h0c-.4034,0-.7779,.2135-.9665,.6024h0c-.254,.537-.0393,1.1813,.4964,1.4353h0c.5369,.2554,1.1799,.0275,1.4352-.5094h0c.2541-.5225,.0406-1.1668-.4963-1.4209-.1611-.0812-.3077-.1074-.4688-.1074Z"/>
          <path class="cls-16" d="M26.55676,23.3129h0c-.3077,0-.6168,.1336-.8315,.4021h0c-.3746,.4688-.2947,1.1393,.161,1.502h0c.4702,.3759,1.1407,.2947,1.5152-.161h0c.3628-.4689,.296-1.1394-.1742-1.5152-.1872-.1611-.4295-.2279-.6705-.2279Z"/>
          <path class="cls-16" d="M24.30436,25.5654h0c-.2279,0-.4702,.0668-.6705,.2279h0c-.4558,.3758-.5369,1.0463-.1611,1.5151h0c.3614,.4571,1.0463,.537,1.5021,.1611h0c.4688-.3614,.5356-1.0319,.1742-1.5021-.2148-.2671-.5226-.402-.8447-.402Z"/>
          <path class="cls-16" d="M21.60926,27.2547h0c-.1611,0-.3222,.0406-.4702,.1074v.0144c-.5356,.2541-.7503,.8984-.4963,1.4209h0c.2554,.5369,.8984,.7648,1.4353,.4963h0c.5369-.2553,.7504-.8983,.4963-1.4222-.1872-.3889-.5631-.6168-.9651-.6168Z"/>
          <path class="cls-16" d="M.93251,17.6268c-.57621,.1335-.93765,.7111-.80408,1.2873H.12844c.13358,.5762,.69669,.9389,1.27421,.8054h0c.57621-.1349,.93896-.698,.81717-1.2887h0c-.12048-.495-.56311-.8302-1.04504-.8302h0c-.08119,0-.16107,.0131-.24227,.0262Z"/>
          <path class="cls-16" d="M2.13112,20.7252c-.53692,.2541-.75038,.8984-.49633,1.4209h0c.25537,.5369,.89837,.7648,1.43529,.5094h0c.53562-.254,.75039-.8983,.49633-1.4353h0c-.18858-.3889-.56311-.6024-.96646-.6024h0c-.16108,0-.30775,.0262-.46883,.1074Z"/>
          <path class="cls-16" d="M3.6332,23.5408c-.47014,.3758-.53692,1.0463-.17417,1.5152h0c.37453,.4557,1.04503,.5369,1.51517,.161h0c.45573-.3627,.53562-1.0332,.16108-1.502h0c-.21477-.2685-.52383-.4021-.83158-.4021h0c-.24096,0-.48323,.0668-.6705,.2279Z"/>
          <path class="cls-16" d="M5.71149,25.9674c-.36144,.4702-.29465,1.1407,.17417,1.5021h0c.45573,.3759,1.14064,.296,1.50208-.1611h0c.37585-.4688,.29465-1.1393-.16108-1.5151h0c-.20036-.1611-.44263-.2279-.6705-.2279h0c-.32215,0-.6299,.1349-.84467,.402Z"/>
          <path class="cls-16" d="M8.28611,27.8715c-.25406,.5239-.0406,1.1669,.49632,1.4222h0c.53693,.2685,1.17993,.0406,1.43533-.4963h0c.254-.5225,.0393-1.1668-.49636-1.4209v-.0144c-.14799-.0668-.30906-.1074-.47014-.1074h0c-.40204,0-.77789,.2279-.96515,.6168Z"/>
          <path class="cls-16" d="M29.65216,13.3984h0c.4819,0,.9246-.3352,1.045-.8302h0c.1218-.5906-.2409-1.1538-.8171-1.2886h0c-.5776-.1336-1.1407,.2291-1.2742,.8053h0c-.1336,.5763,.2278,1.1538,.804,1.2873,.0812,.0131,.1611,.0262,.2423,.0262Z"/>
          <path class="cls-16" d="M31.07736,10.3812h0c.4033,0,.7779-.2135,.9664-.6024h0c.2541-.5369,.0393-1.1812-.4963-1.4353h0c-.5369-.2554-1.1799-.0275-1.4353,.5094h0c-.254,.5225-.0406,1.1668,.4963,1.4209,.1611,.0812,.3078,.1074,.4689,.1074Z"/>
          <path class="cls-16" d="M32.78106,7.6861h0c.3078,0,.6168-.1336,.8316-.402h0c.3745-.4689,.2946-1.1394-.1611-1.5021h0c-.4701-.3759-1.1406-.2947-1.5152,.1611h0c-.3627,.4688-.2959,1.1393,.1742,1.5151,.1873,.1611,.4296,.2279,.6705,.2279Z"/>
          <path class="cls-16" d="M35.03356,5.4336h0c.2278,0,.4701-.0668,.6705-.2278h0c.4557-.3759,.5369-1.0464,.1611-1.5152h0c-.3615-.4571-1.0464-.5369-1.5021-.1611h0c-.4688,.3615-.5356,1.032-.1742,1.5021,.2148,.2671,.5225,.402,.8447,.402Z"/>
          <path class="cls-16" d="M37.72866,3.7443h0c.1611,0,.3221-.0406,.4701-.1074v-.0144c.5356-.2541,.7504-.8984,.4963-1.4209h0c-.2553-.5369-.8983-.7648-1.4352-.4963h0c-.537,.2553-.7504,.8983-.4964,1.4222,.1873,.3889,.5631,.6168,.9652,.6168Z"/>
          <path class="cls-16" d="M40.73276,2.3047h0c.0812,0,.1611-.0144,.241-.0275h0c.5775-.1336,.939-.7111,.8054-1.2873h0c-.1349-.5762-.698-.939-1.2742-.8041h0c-.5893,.1205-.9521,.6967-.8185,1.2873,.1218,.4964,.5644,.8316,1.0463,.8316Z"/>
          <path class="cls-16" d="M43.91116,2.3352c-.2816,0-.5501-.1205-.7648-.3209-.093-.0943-.1742-.2147-.2279-.3496-.0537-.1336-.0799-.2672-.0799-.4021,0-.2946,.1205-.5631,.3078-.7634,.4033-.4034,1.1275-.4034,1.5296,0,.1872,.2003,.3077,.4688,.3077,.7634,0,.2816-.1074,.5501-.3077,.7517-.1074,.1074-.2279,.1742-.3497,.2279-.1336,.0668-.2672,.093-.4151,.093Z"/>
          <path class="cls-16" d="M58.14576,16.5637c.1335,0,.2815-.0262,.402-.0799,.1336-.0537,.2554-.1349,.3483-.2279,.1074-.1074,.1886-.2147,.2423-.3496,.0537-.1336,.0799-.2685,.0799-.4152,0-.2815-.1205-.55-.3222-.7517-.3889-.402-1.1131-.402-1.5151,0-.2004,.2017-.3078,.4702-.3078,.7517,0,.1467,.0262,.2816,.0799,.4152,.0537,.1349,.1336,.2422,.2279,.3496,.1074,.093,.2147,.1742,.3483,.2279,.1349,.0537,.2685,.0799,.4165,.0799Z"/>
          <path class="cls-16" d="M58.40536,13.3722c.5762-.1335,.9377-.711,.8041-1.2873h0c-.1336-.5762-.6967-.9389-1.2742-.8053h0c-.5762,.1348-.939,.698-.8172,1.2886h0c.1205,.495,.5631,.8302,1.045,.8302h0c.0812,0,.1611-.0131,.2423-.0262Z"/>
          <path class="cls-16" d="M57.20676,10.2738c.5369-.2541,.7504-.8984,.4963-1.4209h0c-.2553-.5369-.8983-.7648-1.4353-.5094h0c-.5356,.2541-.7503,.8984-.4963,1.4353h0c.1886,.3889,.5631,.6024,.9665,.6024h0c.161,0,.3077-.0262,.4688-.1074Z"/>
          <path class="cls-16" d="M55.70466,7.4582c.4702-.3758,.5369-1.0463,.1742-1.5151h0c-.3745-.4558-1.045-.537-1.5152-.1611h0c-.4557,.3627-.5356,1.0332-.1611,1.5021h0c.2148,.2684,.5239,.402,.8316,.402h0c.241,0,.4833-.0668,.6705-.2279Z"/>
          <path class="cls-16" d="M53.62636,5.0316c.3615-.4701,.2947-1.1406-.1741-1.5021h0c-.4558-.3758-1.1407-.296-1.5021,.1611h0c-.3759,.4688-.2947,1.1393,.1611,1.5152h0c.2003,.161,.4426,.2278,.6705,.2278h0c.3221,0,.6299-.1349,.8446-.402Z"/>
          <path class="cls-16" d="M51.05176,3.1275c.2541-.5239,.0406-1.1669-.4963-1.4222h0c-.5369-.2685-1.1799-.0406-1.4353,.4963h0c-.2541,.5225-.0393,1.1668,.4963,1.4209v.0144c.148,.0668,.3091,.1074,.4702,.1074h0c.402,0,.7778-.2279,.9651-.6168Z"/>
          <path class="cls-16" d="M48.12886,1.4731c.1335-.5906-.2292-1.1668-.8185-1.2873h0c-.5762-.1349-1.1394,.2279-1.2742,.8041h0c-.1336,.5762,.2278,1.1537,.8053,1.2873h0c.0799,.0131,.1598,.0275,.241,.0275h0c.4819,0,.9246-.3352,1.0464-.8316Z"/>
          <path class="cls-16" d="M58.16306,17.6006h0c-.4819,0-.9245,.3352-1.045,.8302h0c-.1218,.5907,.241,1.1538,.8172,1.2887h0c.5775,.1335,1.1406-.2292,1.2742-.8054h0c.1336-.5762-.2279-1.1538-.8041-1.2873-.0812-.0131-.1611-.0262-.2423-.0262Z"/>
          <path class="cls-16" d="M56.73796,20.6178h0c-.4034,0-.7779,.2135-.9665,.6024h0c-.254,.537-.0393,1.1813,.4963,1.4353h0c.537,.2554,1.18,.0275,1.4353-.5094h0c.2541-.5225,.0406-1.1668-.4963-1.4209-.1611-.0812-.3078-.1074-.4688-.1074Z"/>
          <path class="cls-16" d="M55.03416,23.3129h0c-.3077,0-.6168,.1336-.8316,.4021h0c-.3745,.4688-.2946,1.1393,.1611,1.502h0c.4702,.3759,1.1407,.2947,1.5152-.161h0c.3627-.4689,.296-1.1394-.1742-1.5152-.1872-.1611-.4295-.2279-.6705-.2279Z"/>
          <path class="cls-16" d="M52.78176,25.5654h0c-.2279,0-.4702,.0668-.6705,.2279h0c-.4558,.3758-.537,1.0463-.1611,1.5151h0c.3614,.4571,1.0463,.537,1.5021,.1611h0c.4688-.3614,.5356-1.0319,.1741-1.5021-.2147-.2671-.5225-.402-.8446-.402Z"/>
          <path class="cls-16" d="M50.08666,27.2547h0c-.1611,0-.3222,.0406-.4702,.1074v.0144c-.5356,.2541-.7504,.8984-.4963,1.4209h0c.2554,.5369,.8984,.7648,1.4353,.4963h0c.5369-.2553,.7504-.8983,.4963-1.4222-.1873-.3889-.5631-.6168-.9651-.6168Z"/>
          <path class="cls-16" d="M29.40986,17.6268c-.5762,.1335-.9376,.7111-.804,1.2873h0c.1335,.5762,.6966,.9389,1.2742,.8054h0c.5762-.1349,.9389-.698,.8171-1.2887h0c-.1204-.495-.5631-.8302-1.045-.8302h0c-.0812,0-.1611,.0131-.2423,.0262Z"/>
          <path class="cls-16" d="M30.60846,20.7252c-.5369,.2541-.7503,.8984-.4963,1.4209h0c.2554,.5369,.8984,.7648,1.4353,.5094h0c.5356-.254,.7504-.8983,.4963-1.4353h0c-.1885-.3889-.5631-.6024-.9664-.6024h0c-.1611,0-.3078,.0262-.4689,.1074Z"/>
          <path class="cls-16" d="M32.11056,23.5408c-.4701,.3758-.5369,1.0463-.1742,1.5152h0c.3746,.4557,1.0451,.5369,1.5152,.161h0c.4557-.3627,.5356-1.0332,.1611-1.502h0c-.2148-.2685-.5238-.4021-.8316-.4021h0c-.2409,0-.4832,.0668-.6705,.2279Z"/>
          <path class="cls-16" d="M34.18886,25.9674c-.3614,.4702-.2946,1.1407,.1742,1.5021h0c.4557,.3759,1.1406,.296,1.5021-.1611h0c.3758-.4688,.2946-1.1393-.1611-1.5151h0c-.2004-.1611-.4427-.2279-.6705-.2279h0c-.3222,0-.6299,.1349-.8447,.402Z"/>
          <path class="cls-16" d="M36.76346,27.8715c-.254,.5239-.0406,1.1669,.4964,1.4222h0c.5369,.2685,1.1799,.0406,1.4352-.4963h0c.2541-.5225,.0393-1.1668-.4963-1.4209v-.0144c-.148-.0668-.309-.1074-.4701-.1074h0c-.4021,0-.7779,.2279-.9652,.6168Z"/>
          <path class="cls-16" d="M15.41346,56.15971h0c.4819,0,.9246-.33525,1.0451-.83027h0c.1217-.59061-.241-1.15373-.8172-1.28862h0c-.5775-.13357-1.1407,.22918-1.2742,.80539h0c-.1336,.57621,.2278,1.15373,.804,1.28731,.0812,.01309,.1611,.02619,.2423,.02619Z"/>
          <path class="cls-16" d="M16.83866,53.14246h0c.4033,0,.7779-.21346,.9664-.6024h0c.2541-.53693,.0393-1.18124-.4963-1.43529h0c-.5369-.25537-1.1799-.02751-1.4353,.50942h0c-.254,.52252-.0406,1.16683,.4964,1.42088,.161,.0812,.3077,.10739,.4688,.10739Z"/>
          <path class="cls-16" d="M18.54236,50.44736h0c.3078,0,.6168-.13358,.8316-.40204h0c.3745-.46882,.2947-1.13932-.1611-1.50212h0c-.4701-.3758-1.1406-.2946-1.5151,.1611h0c-.3628,.4688-.296,1.13935,.1741,1.5152,.1873,.16107,.4296,.22786,.6705,.22786Z"/>
          <path class="cls-16" d="M20.79486,48.1949h0c.2279,0,.4701-.0668,.6705-.2279h0c.4557-.3758,.5369-1.0463,.1611-1.5151h0c-.3615-.4571-1.0464-.537-1.5021-.1611h0c-.4688,.3614-.5356,1.0319-.1742,1.5021,.2148,.2671,.5225,.402,.8447,.402Z"/>
          <path class="cls-16" d="M23.48996,46.5056h0c.1611,0,.3221-.0406,.4701-.1074v-.0144c.5356-.2541,.7504-.8984,.4964-1.4209h0c-.2554-.5369-.8984-.7648-1.4353-.4964h0c-.537,.2554-.7504,.8984-.4964,1.4222,.1873,.389,.5632,.6169,.9652,.6169Z"/>
          <path class="cls-16" d="M26.49406,45.066h0c.0812,0,.1611-.0144,.241-.0275h0c.5775-.1336,.939-.7111,.8054-1.2873h0c-.1349-.5762-.698-.939-1.2742-.8041h0c-.5893,.1205-.9521,.6967-.8185,1.2873,.1218,.4963,.5644,.8316,1.0463,.8316Z"/>
          <path class="cls-16" d="M29.67246,45.0965c-.2816,0-.55-.1205-.7648-.3209-.093-.0943-.1742-.2148-.2279-.3496-.0537-.1336-.0799-.2672-.0799-.4021,0-.2946,.1205-.5631,.3078-.7635,.4033-.4033,1.1275-.4033,1.5296,0,.1872,.2004,.3077,.4689,.3077,.7635,0,.2816-.1074,.55-.3077,.7517-.1074,.1074-.2279,.1742-.3497,.2279-.1336,.0668-.2671,.093-.4151,.093Z"/>
          <path class="cls-16" d="M44.16666,56.13352c.5762-.13358,.9377-.7111,.8041-1.28731h0c-.1336-.57621-.6967-.93896-1.2742-.80539h0c-.5762,.13489-.939,.69801-.8172,1.28862h0c.1205,.49502,.5631,.83027,1.045,.83027h0c.0812,0,.1611-.0131,.2423-.02619Z"/>
          <path class="cls-16" d="M42.96806,53.03507c.5369-.25405,.7504-.89836,.4963-1.42088h0c-.2553-.53693-.8983-.76479-1.4353-.50942h0c-.5356,.25405-.7503,.89836-.4963,1.43529h0c.1886,.38894,.5631,.6024,.9665,.6024h0c.1611,0,.3077-.02619,.4688-.10739Z"/>
          <path class="cls-16" d="M41.46596,50.2195c.4702-.37585,.537-1.0464,.1742-1.5152h0c-.3745-.4557-1.045-.5369-1.5152-.1611h0c-.4557,.3628-.5356,1.0333-.161,1.50212h0c.2147,.26846,.5238,.40204,.8315,.40204h0c.241,0,.4833-.06679,.6705-.22786Z"/>
          <path class="cls-16" d="M39.38766,47.7929c.3615-.4702,.2947-1.1407-.1741-1.5021h0c-.4558-.3759-1.1407-.296-1.5021,.1611h0c-.3759,.4688-.2947,1.1393,.1611,1.5151h0c.2003,.1611,.4426,.2279,.6705,.2279h0c.3221,0,.6299-.1349,.8446-.402Z"/>
          <path class="cls-16" d="M36.81306,45.8887c.2541-.5238,.0406-1.1668-.4963-1.4222h0c-.5369-.2684-1.1799-.0405-1.4353,.4964h0c-.254,.5225-.0393,1.1668,.4963,1.4209v.0144c.148,.0668,.3091,.1074,.4702,.1074h0c.402,0,.7779-.2279,.9651-.6169Z"/>
          <path class="cls-16" d="M33.89016,44.2344c.1335-.5906-.2292-1.1668-.8185-1.2873h0c-.5762-.1349-1.1393,.2279-1.2742,.8041h0c-.1336,.5762,.2278,1.1537,.8054,1.2873h0c.0798,.0131,.1597,.0275,.2409,.0275h0c.4819,0,.9246-.3353,1.0464-.8316Z"/>
          <path class="cls-16" d="M1.19216,45.1089c-.13358,0-.28156-.0262-.40204-.0799-.13358-.0537-.25537-.1349-.34835-.2279-.10738-.1074-.18858-.2148-.24227-.3496-.05369-.1336-.07988-.2685-.07988-.4152,0-.2815,.12048-.55,.32215-.7517,.38894-.402,1.11314-.402,1.51518,0,.20036,.2017,.30775,.4702,.30775,.7517,0,.1467-.02619,.2816-.07989,.4152-.05369,.1348-.13357,.2422-.22786,.3496-.10739,.093-.21477,.1742-.34835,.2279-.13488,.0537-.26846,.0799-.41644,.0799Z"/>
          <path class="cls-16" d="M1.17478,41.9436h0c.48193,0,.92456-.3352,1.04504-.8302h0c.12179-.5907-.24096-1.1538-.81717-1.2887h0c-.57752-.1335-1.14064,.2292-1.27421,.8054H.12844c-.13358,.5762,.22787,1.1538,.80408,1.2873,.0812,.0131,.16108,.0262,.24227,.0262Z"/>
          <path class="cls-16" d="M2.59995,38.9264h0c.40335,0,.77788-.2135,.96646-.6024h0c.25406-.537,.03929-1.1813-.49633-1.4353h0c-.53692-.2554-1.17992-.0275-1.43529,.5094h0c-.25405,.5225-.04059,1.1668,.49633,1.4209,.16108,.0812,.30775,.1074,.46883,.1074Z"/>
          <path class="cls-16" d="M4.3037,36.2313h0c.30775,0,.61681-.1336,.83158-.4021h0c.37454-.4688,.29465-1.1393-.16108-1.502h0c-.47014-.3759-1.14064-.2947-1.51517,.161h0c-.36275,.4689-.29597,1.1394,.17417,1.5152,.18727,.1611,.42954,.2279,.6705,.2279Z"/>
          <path class="cls-16" d="M6.55616,33.9788h0c.22787,0,.47014-.0668,.6705-.2279h0c.45573-.3758,.53693-1.0463,.16108-1.5151h0c-.36144-.4571-1.04635-.537-1.50208-.1611h0c-.46882,.3614-.53561,1.0319-.17417,1.5021,.21477,.2671,.52252,.402,.84467,.402Z"/>
          <path class="cls-16" d="M9.25126,32.2895h0c.16108,0,.32215-.0406,.47014-.1074v-.0144c.53566-.2541,.75036-.8984,.49636-1.4209h0c-.2554-.5369-.8984-.7648-1.43533-.4963h0c-.53692,.2553-.75038,.8983-.49632,1.4222,.18726,.3889,.56311,.6168,.96515,.6168Z"/>
          <path class="cls-16" d="M12.25546,30.8499h0c.0811,0,.161-.0144,.2409-.0275h0c.5775-.1336,.939-.7111,.8054-1.2873h0c-.1349-.5762-.698-.939-1.2742-.8041h0c-.5893,.1205-.9521,.6967-.8185,1.2873,.1218,.4963,.5644,.8316,1.0464,.8316Z"/>
          <path class="cls-16" d="M15.43376,30.8804c-.2816,0-.55-.1205-.7648-.3209-.093-.0943-.1742-.2148-.2279-.3496-.0537-.1336-.0799-.2672-.0799-.4021,0-.2946,.1205-.5631,.3078-.7635,.4033-.4033,1.1275-.4033,1.5296,0,.1872,.2004,.3077,.4689,.3077,.7635,0,.2816-.1074,.55-.3077,.7517-.1074,.1074-.2279,.1742-.3497,.2279-.1336,.0668-.2671,.093-.4151,.093Z"/>
          <path class="cls-16" d="M28.72936,38.819c.5369-.2541,.7504-.8984,.4963-1.4209h0c-.2553-.5369-.8983-.7648-1.4352-.5094h0c-.5357,.254-.7504,.8983-.4964,1.4353h0c.1886,.3889,.5631,.6024,.9665,.6024h0c.1611,0,.3077-.0262,.4688-.1074Z"/>
          <path class="cls-16" d="M27.22726,36.0034c.4702-.3758,.537-1.0463,.1742-1.5152h0c-.3745-.4557-1.045-.5369-1.5152-.161h0c-.4557,.3627-.5356,1.0332-.161,1.502h0c.2147,.2685,.5238,.4021,.8315,.4021h0c.241,0,.4833-.0668,.6705-.2279Z"/>
          <path class="cls-16" d="M25.14906,33.5768c.3614-.4702,.2946-1.1407-.1742-1.5021h0c-.4558-.3759-1.1407-.296-1.5021,.1611h0c-.3758,.4688-.2947,1.1393,.1611,1.5151h0c.2003,.1611,.4426,.2279,.6705,.2279h0c.3221,0,.6299-.1349,.8447-.402Z"/>
          <path class="cls-16" d="M22.57436,31.6727c.2541-.5239,.0406-1.1669-.4963-1.4222h0c-.5369-.2685-1.1799-.0406-1.4353,.4963h0c-.254,.5225-.0393,1.1668,.4963,1.4209v.0144c.148,.0668,.3091,.1074,.4702,.1074h0c.402,0,.7779-.2279,.9651-.6168Z"/>
          <path class="cls-16" d="M19.65146,30.0183c.1335-.5906-.2292-1.1668-.8185-1.2873h0c-.5762-.1349-1.1393,.2279-1.2742,.8041h0c-.1336,.5762,.2278,1.1537,.8054,1.2873h0c.0798,.0131,.1597,.0275,.2409,.0275h0c.4819,0,.9246-.3353,1.0464-.8316Z"/>
          <path class="cls-16" d="M28.26056,49.163h0c-.4034,0-.7779,.2135-.9665,.60241h0c-.254,.53693-.0393,1.18124,.4964,1.43529h0c.5369,.25537,1.1799,.0275,1.4352-.50942h0c.2541-.52252,.0406-1.16678-.4963-1.42088-.1611-.0812-.3077-.1074-.4688-.1074Z"/>
          <path class="cls-16" d="M26.55676,51.85811h0c-.3077,0-.6168,.13357-.8315,.40204h0c-.3746,.46882-.2947,1.13932,.161,1.50207h0c.4702,.37585,1.1407,.29466,1.5152-.16107h0c.3628-.46883,.296-1.13933-.1742-1.51518-.1872-.16107-.4295-.22786-.6705-.22786Z"/>
          <path class="cls-16" d="M24.30436,54.11057h0c-.2279,0-.4702,.06679-.6705,.22787h0c-.4558,.37584-.5369,1.04634-.1611,1.51517h0c.3614,.45704,1.0463,.53692,1.5021,.16108h0c.4688-.36145,.5356-1.03195,.1742-1.50208-.2148-.26715-.5226-.40204-.8447-.40204Z"/>
          <path class="cls-16" d="M21.60926,55.79992h0c-.1611,0-.3222,.04059-.4702,.10738v.01441c-.5356,.25405-.7503,.89836-.4963,1.42088h0c.2554,.53693,.8984,.76479,1.4353,.49633h0c.5369-.25537,.7504-.89837,.4963-1.4222-.1872-.38894-.5631-.6168-.9651-.6168Z"/>
          <path class="cls-16" d="M18.60506,57.23949h0c-.0812,0-.1611,.0144-.2409,.0275h0c-.5776,.13357-.939,.71109-.8054,1.28731h0c.1349,.57621,.698,.93896,1.2742,.80408h0c.5893-.12048,.952-.69669,.8185-1.28731-.1218-.49632-.5645-.83157-1.0464-.83157Z"/>
          <path class="cls-16" d="M15.42676,57.20902c.2816,0,.55,.12048,.7648,.32084,.093,.09429,.1742,.21477,.2279,.34966,.0536,.13357,.0798,.26715,.0798,.40203,0,.29466-.1204,.56312-.3077,.76348-.4034,.40335-1.1276,.40335-1.5296,0-.1873-.20036-.3077-.46883-.3077-.76348,0-.28155,.1073-.55002,.3077-.75169,.1074-.10738,.2279-.17417,.3497-.22786,.1335-.06679,.2671-.09298,.4151-.09298Z"/>
          <path class="cls-16" d="M.93251,46.1719c-.57621,.1336-.93765,.7111-.80408,1.2874H.12844c.13358,.5762,.69669,.9389,1.27421,.8053h0c.57621-.1348,.93896-.698,.81717-1.2886h0c-.12048-.495-.56311-.8302-1.04504-.8302h0c-.08119,0-.16107,.0131-.24227,.0261Z"/>
          <path class="cls-16" d="M2.13112,49.2704c-.53692,.2541-.75038,.89836-.49633,1.42088h0c.25537,.53692,.89837,.76479,1.43529,.50942h0c.53562-.25405,.75039-.89836,.49633-1.43529h0c-.18858-.38891-.56311-.60241-.96646-.60241h0c-.16108,0-.30775,.0262-.46883,.1074Z"/>
          <path class="cls-16" d="M3.6332,52.08597c-.47014,.37585-.53692,1.04635-.17417,1.51518h0c.37453,.45573,1.04503,.53692,1.51517,.16107h0c.45573-.36275,.53562-1.03325,.16108-1.50207h0c-.21477-.26847-.52383-.40204-.83158-.40204h0c-.24096,0-.48323,.06679-.6705,.22786Z"/>
          <path class="cls-16" d="M5.71149,54.51261c-.36144,.47013-.29465,1.14063,.17417,1.50208h0c.45573,.37584,1.14064,.29596,1.50208-.16108h0c.37585-.46883,.29465-1.13933-.16108-1.51517h0c-.20036-.16108-.44263-.22787-.6705-.22787h0c-.32215,0-.6299,.13489-.84467,.40204Z"/>
          <path class="cls-16" d="M8.28611,56.41672c-.25406,.52383-.0406,1.16683,.49632,1.4222h0c.53693,.26846,1.17993,.0406,1.43533-.49633h0c.254-.52252,.0393-1.16683-.49636-1.42088v-.01441c-.14799-.06679-.30906-.10738-.47014-.10738h0c-.40204,0-.77789,.22786-.96515,.6168Z"/>
          <path class="cls-16" d="M11.20906,58.07106c-.1336,.59062,.2292,1.16683,.8185,1.28731h0c.5762,.13489,1.1393-.22787,1.2742-.80408h0c.1336-.57622-.2279-1.15374-.8054-1.28731h0c-.0799-.0131-.1598-.0275-.2409-.0275h0c-.482,0-.9246,.33525-1.0464,.83157Z"/>
          <path class="cls-16" d="M29.65216,41.9436h0c.4819,0,.9246-.3352,1.045-.8302h0c.1218-.5907-.2409-1.1538-.8171-1.2887h0c-.5776-.1335-1.1407,.2292-1.2742,.8054h0c-.1336,.5762,.2278,1.1538,.804,1.2873,.0812,.0131,.1611,.0262,.2423,.0262Z"/>
          <path class="cls-16" d="M31.07736,38.9264h0c.4033,0,.7779-.2135,.9664-.6024h0c.2541-.537,.0393-1.1813-.4963-1.4353h0c-.5369-.2554-1.1799-.0275-1.4353,.5094h0c-.254,.5225-.0406,1.1668,.4963,1.4209,.1611,.0812,.3078,.1074,.4689,.1074Z"/>
          <path class="cls-16" d="M32.78106,36.2313h0c.3078,0,.6168-.1336,.8316-.4021h0c.3745-.4688,.2946-1.1393-.1611-1.502h0c-.4701-.3759-1.1406-.2947-1.5152,.161h0c-.3627,.4689-.2959,1.1394,.1742,1.5152,.1873,.1611,.4296,.2279,.6705,.2279Z"/>
          <path class="cls-16" d="M35.03356,33.9788h0c.2278,0,.4701-.0668,.6705-.2279h0c.4557-.3758,.5369-1.0463,.1611-1.5151h0c-.3615-.4571-1.0464-.537-1.5021-.1611h0c-.4688,.3614-.5356,1.0319-.1742,1.5021,.2148,.2671,.5225,.402,.8447,.402Z"/>
          <path class="cls-16" d="M37.72866,32.2895h0c.1611,0,.3221-.0406,.4701-.1074v-.0144c.5356-.2541,.7504-.8984,.4963-1.4209h0c-.2553-.5369-.8983-.7648-1.4352-.4963h0c-.537,.2553-.7504,.8983-.4964,1.4222,.1873,.3889,.5631,.6168,.9652,.6168Z"/>
          <path class="cls-16" d="M40.73276,30.8499h0c.0812,0,.1611-.0144,.241-.0275h0c.5775-.1336,.939-.7111,.8054-1.2873h0c-.1349-.5762-.698-.939-1.2742-.8041h0c-.5893,.1205-.9521,.6967-.8185,1.2873,.1218,.4963,.5644,.8316,1.0463,.8316Z"/>
          <path class="cls-16" d="M43.91116,30.8804c-.2816,0-.5501-.1205-.7648-.3209-.093-.0943-.1742-.2148-.2279-.3496-.0537-.1336-.0799-.2672-.0799-.4021,0-.2946,.1205-.5631,.3078-.7635,.4033-.4033,1.1275-.4033,1.5296,0,.1872,.2004,.3077,.4689,.3077,.7635,0,.2816-.1074,.55-.3077,.7517-.1074,.1074-.2279,.1742-.3497,.2279-.1336,.0668-.2672,.093-.4151,.093Z"/>
          <path class="cls-16" d="M58.14576,45.1089c.1335,0,.2815-.0262,.402-.0799,.1336-.0537,.2554-.1349,.3483-.2279,.1074-.1074,.1886-.2148,.2423-.3496,.0537-.1336,.0799-.2685,.0799-.4152,0-.2815-.1205-.55-.3222-.7517-.3889-.402-1.1131-.402-1.5151,0-.2004,.2017-.3078,.4702-.3078,.7517,0,.1467,.0262,.2816,.0799,.4152,.0537,.1348,.1336,.2422,.2279,.3496,.1074,.093,.2147,.1742,.3483,.2279,.1349,.0537,.2685,.0799,.4165,.0799Z"/>
          <path class="cls-16" d="M58.40536,41.9174c.5762-.1335,.9377-.7111,.8041-1.2873h0c-.1336-.5762-.6967-.9389-1.2742-.8054h0c-.5762,.1349-.939,.698-.8172,1.2887h0c.1205,.495,.5631,.8302,1.045,.8302h0c.0812,0,.1611-.0131,.2423-.0262Z"/>
          <path class="cls-16" d="M57.20676,38.819c.5369-.2541,.7504-.8984,.4963-1.4209h0c-.2553-.5369-.8983-.7648-1.4353-.5094h0c-.5356,.254-.7503,.8983-.4963,1.4353h0c.1886,.3889,.5631,.6024,.9665,.6024h0c.161,0,.3077-.0262,.4688-.1074Z"/>
          <path class="cls-16" d="M55.70466,36.0034c.4702-.3758,.5369-1.0463,.1742-1.5152h0c-.3745-.4557-1.045-.5369-1.5152-.161h0c-.4557,.3627-.5356,1.0332-.1611,1.502h0c.2148,.2685,.5239,.4021,.8316,.4021h0c.241,0,.4833-.0668,.6705-.2279Z"/>
          <path class="cls-16" d="M53.62636,33.5768c.3615-.4702,.2947-1.1407-.1741-1.5021h0c-.4558-.3759-1.1407-.296-1.5021,.1611h0c-.3759,.4688-.2947,1.1393,.1611,1.5151h0c.2003,.1611,.4426,.2279,.6705,.2279h0c.3221,0,.6299-.1349,.8446-.402Z"/>
          <path class="cls-16" d="M51.05176,31.6727c.2541-.5239,.0406-1.1669-.4963-1.4222h0c-.5369-.2685-1.1799-.0406-1.4353,.4963h0c-.2541,.5225-.0393,1.1668,.4963,1.4209v.0144c.148,.0668,.3091,.1074,.4702,.1074h0c.402,0,.7778-.2279,.9651-.6168Z"/>
          <path class="cls-16" d="M48.12886,30.0183c.1335-.5906-.2292-1.1668-.8185-1.2873h0c-.5762-.1349-1.1394,.2279-1.2742,.8041h0c-.1336,.5762,.2278,1.1537,.8053,1.2873h0c.0799,.0131,.1598,.0275,.241,.0275h0c.4819,0,.9246-.3353,1.0464-.8316Z"/>
          <path class="cls-16" d="M58.16306,46.1458h0c-.4819,0-.9245,.3352-1.045,.8302h0c-.1218,.5906,.241,1.1538,.8172,1.2886h0c.5775,.1336,1.1406-.2291,1.2742-.8053h0c.1336-.5763-.2279-1.1538-.8041-1.2874-.0812-.013-.1611-.0261-.2423-.0261Z"/>
          <path class="cls-16" d="M56.73796,49.163h0c-.4034,0-.7779,.2135-.9665,.60241h0c-.254,.53693-.0393,1.18124,.4963,1.43529h0c.537,.25537,1.18,.0275,1.4353-.50942h0c.2541-.52252,.0406-1.16678-.4963-1.42088-.1611-.0812-.3078-.1074-.4688-.1074Z"/>
          <path class="cls-16" d="M55.03416,51.85811h0c-.3077,0-.6168,.13357-.8316,.40204h0c-.3745,.46882-.2946,1.13932,.1611,1.50207h0c.4702,.37585,1.1407,.29466,1.5152-.16107h0c.3627-.46883,.296-1.13933-.1742-1.51518-.1872-.16107-.4295-.22786-.6705-.22786Z"/>
          <path class="cls-16" d="M52.78176,54.11057h0c-.2279,0-.4702,.06679-.6705,.22787h0c-.4558,.37584-.537,1.04634-.1611,1.51517h0c.3614,.45704,1.0463,.53692,1.5021,.16108h0c.4688-.36145,.5356-1.03195,.1741-1.50208-.2147-.26715-.5225-.40204-.8446-.40204Z"/>
          <path class="cls-16" d="M50.08666,55.79992h0c-.1611,0-.3222,.04059-.4702,.10738v.01441c-.5356,.25405-.7504,.89836-.4963,1.42088h0c.2554,.53693,.8984,.76479,1.4353,.49633h0c.5369-.25537,.7504-.89837,.4963-1.4222-.1873-.38894-.5631-.6168-.9651-.6168Z"/>
          <path class="cls-16" d="M47.08246,57.23949h0c-.0812,0-.1611,.0144-.241,.0275h0c-.5775,.13357-.9389,.71109-.8053,1.28731h0c.1348,.57621,.698,.93896,1.2742,.80408h0c.5893-.12048,.952-.69669,.8185-1.28731-.1218-.49632-.5645-.83157-1.0464-.83157Z"/>
          <path class="cls-16" d="M43.90416,57.20902c.2815,0,.55,.12048,.7648,.32084,.0929,.09429,.1741,.21477,.2278,.34966,.0537,.13357,.0799,.26715,.0799,.40203,0,.29466-.1205,.56312-.3077,.76348-.4034,.40335-1.1276,.40335-1.5296,0-.1873-.20036-.3078-.46883-.3078-.76348,0-.28155,.1074-.55002,.3078-.75169,.1074-.10738,.2278-.17417,.3496-.22786,.1336-.06679,.2672-.09298,.4152-.09298Z"/>
          <path class="cls-16" d="M29.40986,46.1719c-.5762,.1336-.9376,.7111-.804,1.2874h0c.1335,.5762,.6966,.9389,1.2742,.8053h0c.5762-.1348,.9389-.698,.8171-1.2886h0c-.1204-.495-.5631-.8302-1.045-.8302h0c-.0812,0-.1611,.0131-.2423,.0261Z"/>
          <path class="cls-16" d="M30.60846,49.2704c-.5369,.2541-.7503,.89836-.4963,1.42088h0c.2554,.53692,.8984,.76479,1.4353,.50942h0c.5356-.25405,.7504-.89836,.4963-1.43529h0c-.1885-.38891-.5631-.60241-.9664-.60241h0c-.1611,0-.3078,.0262-.4689,.1074Z"/>
          <path class="cls-16" d="M32.11056,52.08597c-.4701,.37585-.5369,1.04635-.1742,1.51518h0c.3746,.45573,1.0451,.53692,1.5152,.16107h0c.4557-.36275,.5356-1.03325,.1611-1.50207h0c-.2148-.26847-.5238-.40204-.8316-.40204h0c-.2409,0-.4832,.06679-.6705,.22786Z"/>
          <path class="cls-16" d="M34.18886,54.51261c-.3614,.47013-.2946,1.14063,.1742,1.50208h0c.4557,.37584,1.1406,.29596,1.5021-.16108h0c.3758-.46883,.2946-1.13933-.1611-1.51517h0c-.2004-.16108-.4427-.22787-.6705-.22787h0c-.3222,0-.6299,.13489-.8447,.40204Z"/>
          <path class="cls-16" d="M36.76346,56.41672c-.254,.52383-.0406,1.16683,.4964,1.4222h0c.5369,.26846,1.1799,.0406,1.4352-.49633h0c.2541-.52252,.0393-1.16683-.4963-1.42088v-.01441c-.148-.06679-.309-.10738-.4701-.10738h0c-.4021,0-.7779,.22786-.9652,.6168Z"/>
          <path class="cls-16" d="M39.68646,58.07106c-.1336,.59062,.2292,1.16683,.8185,1.28731h0c.5762,.13489,1.1393-.22787,1.2742-.80408h0c.1336-.57622-.2279-1.15374-.8054-1.28731h0c-.0799-.0131-.1598-.0275-.241-.0275h0c-.4819,0-.9245,.33525-1.0463,.83157Z"/>
        </g>
      </g>
    </pattern>
    <clipPath id="clippath-7">
      <polygon class="cls-1" points="979.92892 135.84987 870.67255 135.84987 816.04436 230.46867 870.67255 325.08747 979.92892 325.08747 1034.55711 230.46867 979.92892 135.84987"/>
    </clipPath>
    <pattern id="_新規パターンスウォッチ_38" data-name="新規パターンスウォッチ 38" x="0" y="0" width="85.0172" height="93.1606" patternTransform="translate(-397.93755 -544.80605) scale(.9414)" patternUnits="userSpaceOnUse" viewBox="0 0 85.0172 93.1606">
      <g>
        <rect class="cls-1" x="0" width="85.0172" height="93.1606"/>
        <g>
          <path class="cls-17" d="M84.9104,7.0684c0,11.6814-9.4678,21.1505-21.1476,21.1505-11.6809,0-21.1481-9.4691-21.1481-21.1505,0-11.6791,9.4672-21.1464,21.1481-21.1464,11.6798,0,21.1476,9.4673,21.1476,21.1464Z"/>
          <path class="cls-17" d="M48.3027,7.0684c0-8.5366,6.921-15.4587,15.4602-15.4587,8.5378,0,15.4591,6.9221,15.4591,15.4587,0,8.5403-6.9213,15.4606-15.4591,15.4606-8.5392,0-15.4602-6.9203-15.4602-15.4606Z"/>
          <path class="cls-17" d="M73.5336,7.0684c0,5.3992-4.3747,9.7707-9.7707,9.7707-5.3973,0-9.7721-4.3715-9.7721-9.7707,0-5.394,4.3748-9.7709,9.7721-9.7709,5.396,0,9.7707,4.3769,9.7707,9.7709Z"/>
        </g>
        <g>
          <path class="cls-17" d="M42.4018,7.0684c0,11.6814-9.4678,21.1505-21.1475,21.1505C9.5733,28.2189,.1061,18.7498,.1061,7.0684,.1061-4.6107,9.5733-14.078,21.2543-14.078c11.6797,0,21.1475,9.4673,21.1475,21.1464Z"/>
          <path class="cls-17" d="M5.7942,7.0684c0-8.5366,6.921-15.4587,15.4601-15.4587,8.5378,0,15.4591,6.9221,15.4591,15.4587,0,8.5403-6.9213,15.4606-15.4591,15.4606-8.5391,0-15.4601-6.9203-15.4601-15.4606Z"/>
          <path class="cls-17" d="M31.0251,7.0684c0,5.3992-4.3748,9.7707-9.7708,9.7707-5.3973,0-9.7721-4.3715-9.7721-9.7707C11.4822,1.6744,15.857-2.7025,21.2543-2.7025c5.396,0,9.7708,4.3769,9.7708,9.7709Z"/>
        </g>
        <g>
          <path class="cls-17" d="M63.6561,22.5638c0,11.6814-9.4678,21.1506-21.1475,21.1506-11.681,0-21.1482-9.4692-21.1482-21.1506C21.3604,10.8847,30.8276,1.4174,42.5086,1.4174c11.6797,0,21.1475,9.4673,21.1475,21.1464Z"/>
          <path class="cls-17" d="M27.0484,22.5638c0-8.5366,6.921-15.4587,15.4602-15.4587,8.5378,0,15.4591,6.9221,15.4591,15.4587,0,8.5404-6.9213,15.4606-15.4591,15.4606-8.5392,0-15.4602-6.9202-15.4602-15.4606Z"/>
          <path class="cls-17" d="M52.2793,22.5638c0,5.3993-4.3747,9.7707-9.7707,9.7707-5.3973,0-9.7721-4.3714-9.7721-9.7707,0-5.394,4.3748-9.7709,9.7721-9.7709,5.396,0,9.7707,4.3769,9.7707,9.7709Z"/>
        </g>
        <g>
          <path class="cls-17" d="M21.1475,22.5638c0,11.6814-9.4678,21.1506-21.1475,21.1506-11.681,0-21.1482-9.4692-21.1482-21.1506C-21.1482,10.8847-11.681,1.4174,0,1.4174c11.6797,0,21.1475,9.4673,21.1475,21.1464Z"/>
          <path class="cls-17" d="M-15.46013,22.5638C-15.46013,14.0272-8.5391,7.1051,0,7.1051c8.5378,0,15.4592,6.9221,15.4592,15.4587,0,8.5404-6.9214,15.4606-15.4592,15.4606-8.5391,0-15.46013-6.9202-15.46013-15.4606Z"/>
          <path class="cls-17" d="M9.7708,22.5638c0,5.3993-4.3748,9.7707-9.7708,9.7707-5.3973,0-9.7721-4.3714-9.7721-9.7707,0-5.394,4.3748-9.7709,9.7721-9.7709,5.396,0,9.7708,4.3769,9.7708,9.7709Z"/>
        </g>
        <g>
          <path class="cls-17" d="M106.1647,22.5638c0,11.6814-9.4679,21.1506-21.1476,21.1506-11.6809,0-21.1481-9.4692-21.1481-21.1506,0-11.6791,9.4672-21.1464,21.1481-21.1464,11.6797,0,21.1476,9.4673,21.1476,21.1464Z"/>
          <path class="cls-17" d="M69.557,22.5638c0-8.5366,6.921-15.4587,15.4602-15.4587,8.5378,0,15.4591,6.9221,15.4591,15.4587,0,8.5404-6.9213,15.4606-15.4591,15.4606-8.5392,0-15.4602-6.9202-15.4602-15.4606Z"/>
          <path class="cls-17" d="M94.7879,22.5638c0,5.3993-4.3748,9.7707-9.7707,9.7707-5.3973,0-9.7721-4.3714-9.7721-9.7707,0-5.394,4.3748-9.7709,9.7721-9.7709,5.3959,0,9.7707,4.3769,9.7707,9.7709Z"/>
        </g>
        <g>
          <path class="cls-17" d="M84.9104,38.0588c0,11.6815-9.4678,21.1506-21.1476,21.1506-11.6809,0-21.1481-9.4691-21.1481-21.1506,0-11.6791,9.4672-21.1464,21.1481-21.1464,11.6798,0,21.1476,9.4673,21.1476,21.1464Z"/>
          <path class="cls-17" d="M48.3027,38.0588c0-8.5365,6.921-15.4586,15.4602-15.4586,8.5378,0,15.4591,6.9221,15.4591,15.4586,0,8.5404-6.9213,15.4606-15.4591,15.4606-8.5392,0-15.4602-6.9202-15.4602-15.4606Z"/>
          <path class="cls-17" d="M73.5336,38.0588c0,5.3993-4.3747,9.7707-9.7707,9.7707-5.3973,0-9.7721-4.3714-9.7721-9.7707,0-5.394,4.3748-9.7709,9.7721-9.7709,5.396,0,9.7707,4.3769,9.7707,9.7709Z"/>
        </g>
        <g>
          <path class="cls-17" d="M42.4018,38.0588c0,11.6815-9.4678,21.1506-21.1475,21.1506C9.5733,59.2094,.1061,49.7403,.1061,38.0588,.1061,26.3797,9.5733,16.9124,21.2543,16.9124c11.6797,0,21.1475,9.4673,21.1475,21.1464Z"/>
          <path class="cls-17" d="M5.7942,38.0588c0-8.5365,6.921-15.4586,15.4601-15.4586,8.5378,0,15.4591,6.9221,15.4591,15.4586,0,8.5404-6.9213,15.4606-15.4591,15.4606-8.5391,0-15.4601-6.9202-15.4601-15.4606Z"/>
          <path class="cls-17" d="M31.0251,38.0588c0,5.3993-4.3748,9.7707-9.7708,9.7707-5.3973,0-9.7721-4.3714-9.7721-9.7707,0-5.394,4.3748-9.7709,9.7721-9.7709,5.396,0,9.7708,4.3769,9.7708,9.7709Z"/>
        </g>
        <g>
          <path class="cls-17" d="M63.6561,53.5195c0,11.6815-9.4678,21.1506-21.1475,21.1506-11.681,0-21.1482-9.4691-21.1482-21.1506,0-11.6791,9.4672-21.1464,21.1482-21.1464,11.6797,0,21.1475,9.4673,21.1475,21.1464Z"/>
          <path class="cls-17" d="M27.0484,53.5195c0-8.5365,6.921-15.4586,15.4602-15.4586,8.5378,0,15.4591,6.9221,15.4591,15.4586,0,8.5404-6.9213,15.4607-15.4591,15.4607-8.5392,0-15.4602-6.9203-15.4602-15.4607Z"/>
          <path class="cls-17" d="M52.2793,53.5195c0,5.3993-4.3747,9.7707-9.7707,9.7707-5.3973,0-9.7721-4.3714-9.7721-9.7707,0-5.394,4.3748-9.7708,9.7721-9.7708,5.396,0,9.7707,4.3768,9.7707,9.7708Z"/>
        </g>
        <g>
          <path class="cls-17" d="M21.1475,53.5195c0,11.6815-9.4678,21.1506-21.1475,21.1506-11.681,0-21.1482-9.4691-21.1482-21.1506,0-11.6791,9.4672-21.1464,21.1482-21.1464,11.6797,0,21.1475,9.4673,21.1475,21.1464Z"/>
          <path class="cls-17" d="M-15.46013,53.5195c0-8.5365,6.92103-15.4586,15.46013-15.4586,8.5378,0,15.4592,6.9221,15.4592,15.4586,0,8.5404-6.9214,15.4607-15.4592,15.4607-8.5391,0-15.46013-6.9203-15.46013-15.4607Z"/>
          <path class="cls-17" d="M9.7708,53.5195c0,5.3993-4.3748,9.7707-9.7708,9.7707-5.3973,0-9.7721-4.3714-9.7721-9.7707,0-5.394,4.3748-9.7708,9.7721-9.7708,5.396,0,9.7708,4.3768,9.7708,9.7708Z"/>
        </g>
        <g>
          <path class="cls-17" d="M106.1647,53.5195c0,11.6815-9.4679,21.1506-21.1476,21.1506-11.6809,0-21.1481-9.4691-21.1481-21.1506,0-11.6791,9.4672-21.1464,21.1481-21.1464,11.6797,0,21.1476,9.4673,21.1476,21.1464Z"/>
          <path class="cls-17" d="M69.557,53.5195c0-8.5365,6.921-15.4586,15.4602-15.4586,8.5378,0,15.4591,6.9221,15.4591,15.4586,0,8.5404-6.9213,15.4607-15.4591,15.4607-8.5392,0-15.4602-6.9203-15.4602-15.4607Z"/>
          <path class="cls-17" d="M94.7879,53.5195c0,5.3993-4.3748,9.7707-9.7707,9.7707-5.3973,0-9.7721-4.3714-9.7721-9.7707,0-5.394,4.3748-9.7708,9.7721-9.7708,5.3959,0,9.7707,4.3768,9.7707,9.7708Z"/>
        </g>
        <g>
          <path class="cls-17" d="M84.9104,69.1616c0,11.6815-9.4678,21.1506-21.1476,21.1506-11.6809,0-21.1481-9.4691-21.1481-21.1506,0-11.679,9.4672-21.1464,21.1481-21.1464,11.6798,0,21.1476,9.4674,21.1476,21.1464Z"/>
          <path class="cls-17" d="M48.3027,69.1616c0-8.5365,6.921-15.4586,15.4602-15.4586,8.5378,0,15.4591,6.9221,15.4591,15.4586,0,8.5404-6.9213,15.4607-15.4591,15.4607-8.5392,0-15.4602-6.9203-15.4602-15.4607Z"/>
          <path class="cls-17" d="M73.5336,69.1616c0,5.3993-4.3747,9.7708-9.7707,9.7708-5.3973,0-9.7721-4.3715-9.7721-9.7708,0-5.394,4.3748-9.7708,9.7721-9.7708,5.396,0,9.7707,4.3768,9.7707,9.7708Z"/>
        </g>
        <g>
          <path class="cls-17" d="M42.4018,69.1616c0,11.6815-9.4678,21.1506-21.1475,21.1506C9.5733,90.3122,.1061,80.8431,.1061,69.1616c0-11.679,9.4672-21.1464,21.1482-21.1464,11.6797,0,21.1475,9.4674,21.1475,21.1464Z"/>
          <path class="cls-17" d="M5.7942,69.1616c0-8.5365,6.921-15.4586,15.4601-15.4586,8.5378,0,15.4591,6.9221,15.4591,15.4586,0,8.5404-6.9213,15.4607-15.4591,15.4607-8.5391,0-15.4601-6.9203-15.4601-15.4607Z"/>
          <path class="cls-17" d="M31.0251,69.1616c0,5.3993-4.3748,9.7708-9.7708,9.7708-5.3973,0-9.7721-4.3715-9.7721-9.7708,0-5.394,4.3748-9.7708,9.7721-9.7708,5.396,0,9.7708,4.3768,9.7708,9.7708Z"/>
        </g>
        <g>
          <path class="cls-17" d="M63.6561,84.6224c0,11.6814-9.4678,21.1505-21.1475,21.1505-11.681,0-21.1482-9.4691-21.1482-21.1505,0-11.6791,9.4672-21.1465,21.1482-21.1465,11.6797,0,21.1475,9.4674,21.1475,21.1465Z"/>
          <path class="cls-17" d="M27.0484,84.6224c0-8.5366,6.921-15.4587,15.4602-15.4587,8.5378,0,15.4591,6.9221,15.4591,15.4587,0,8.5403-6.9213,15.4606-15.4591,15.4606-8.5392,0-15.4602-6.9203-15.4602-15.4606Z"/>
          <path class="cls-17" d="M52.2793,84.6224c0,5.3992-4.3747,9.7707-9.7707,9.7707-5.3973,0-9.7721-4.3715-9.7721-9.7707,0-5.394,4.3748-9.7709,9.7721-9.7709,5.396,0,9.7707,4.3769,9.7707,9.7709Z"/>
        </g>
        <g>
          <path class="cls-17" d="M21.1475,84.6224c0,11.6814-9.4678,21.1505-21.1475,21.1505-11.681,0-21.1482-9.4691-21.1482-21.1505,0-11.6791,9.4672-21.1465,21.1482-21.1465,11.6797,0,21.1475,9.4674,21.1475,21.1465Z"/>
          <path class="cls-17" d="M-15.46013,84.6224c0-8.5366,6.92103-15.4587,15.46013-15.4587,8.5378,0,15.4592,6.9221,15.4592,15.4587,0,8.5403-6.9214,15.4606-15.4592,15.4606-8.5391,0-15.46013-6.9203-15.46013-15.4606Z"/>
          <path class="cls-17" d="M9.7708,84.6224c0,5.3992-4.3748,9.7707-9.7708,9.7707-5.3973,0-9.7721-4.3715-9.7721-9.7707,0-5.394,4.3748-9.7709,9.7721-9.7709,5.396,0,9.7708,4.3769,9.7708,9.7709Z"/>
        </g>
        <g>
          <path class="cls-17" d="M106.1647,84.6224c0,11.6814-9.4679,21.1505-21.1476,21.1505-11.6809,0-21.1481-9.4691-21.1481-21.1505,0-11.6791,9.4672-21.1465,21.1481-21.1465,11.6797,0,21.1476,9.4674,21.1476,21.1465Z"/>
          <path class="cls-17" d="M69.557,84.6224c0-8.5366,6.921-15.4587,15.4602-15.4587,8.5378,0,15.4591,6.9221,15.4591,15.4587,0,8.5403-6.9213,15.4606-15.4591,15.4606-8.5392,0-15.4602-6.9203-15.4602-15.4606Z"/>
          <path class="cls-17" d="M94.7879,84.6224c0,5.3992-4.3748,9.7707-9.7707,9.7707-5.3973,0-9.7721-4.3715-9.7721-9.7707,0-5.394,4.3748-9.7709,9.7721-9.7709,5.3959,0,9.7707,4.3769,9.7707,9.7709Z"/>
        </g>
        <g>
          <path class="cls-17" d="M84.9104,100.1174c0,11.6814-9.4678,21.1505-21.1476,21.1505-11.6809,0-21.1481-9.4691-21.1481-21.1505,0-11.6791,9.4672-21.1464,21.1481-21.1464,11.6798,0,21.1476,9.4673,21.1476,21.1464Z"/>
          <path class="cls-17" d="M48.3027,100.1174c0-8.5366,6.921-15.4587,15.4602-15.4587,8.5378,0,15.4591,6.9221,15.4591,15.4587,0,8.5403-6.9213,15.4606-15.4591,15.4606-8.5392,0-15.4602-6.9203-15.4602-15.4606Z"/>
          <path class="cls-17" d="M73.5336,100.1174c0,5.3992-4.3747,9.7707-9.7707,9.7707-5.3973,0-9.7721-4.3715-9.7721-9.7707,0-5.394,4.3748-9.7709,9.7721-9.7709,5.396,0,9.7707,4.3769,9.7707,9.7709Z"/>
        </g>
        <g>
          <path class="cls-17" d="M42.4018,100.1174c0,11.6814-9.4678,21.1505-21.1475,21.1505C9.5733,121.2679,.1061,111.7988,.1061,100.1174c0-11.6791,9.4672-21.1464,21.1482-21.1464,11.6797,0,21.1475,9.4673,21.1475,21.1464Z"/>
          <path class="cls-17" d="M5.7942,100.1174c0-8.5366,6.921-15.4587,15.4601-15.4587,8.5378,0,15.4591,6.9221,15.4591,15.4587,0,8.5403-6.9213,15.4606-15.4591,15.4606-8.5391,0-15.4601-6.9203-15.4601-15.4606Z"/>
          <path class="cls-17" d="M31.0251,100.1174c0,5.3992-4.3748,9.7707-9.7708,9.7707-5.3973,0-9.7721-4.3715-9.7721-9.7707,0-5.394,4.3748-9.7709,9.7721-9.7709,5.396,0,9.7708,4.3769,9.7708,9.7709Z"/>
        </g>
        <g>
          <path class="cls-17" d="M63.6561,115.5781c0,11.6814-9.4678,21.1506-21.1475,21.1506-11.681,0-21.1482-9.4692-21.1482-21.1506,0-11.6791,9.4672-21.1464,21.1482-21.1464,11.6797,0,21.1475,9.4673,21.1475,21.1464Z"/>
          <path class="cls-17" d="M27.0484,115.5781c0-8.5366,6.921-15.4587,15.4602-15.4587,8.5378,0,15.4591,6.9221,15.4591,15.4587,0,8.5404-6.9213,15.4606-15.4591,15.4606-8.5392,0-15.4602-6.9202-15.4602-15.4606Z"/>
          <path class="cls-17" d="M52.2793,115.5781c0,5.3993-4.3747,9.7707-9.7707,9.7707-5.3973,0-9.7721-4.3714-9.7721-9.7707,0-5.394,4.3748-9.7709,9.7721-9.7709,5.396,0,9.7707,4.3769,9.7707,9.7709Z"/>
        </g>
        <g>
          <path class="cls-17" d="M21.1475,115.5781c0,11.6814-9.4678,21.1506-21.1475,21.1506-11.681,0-21.1482-9.4692-21.1482-21.1506,0-11.6791,9.4672-21.1464,21.1482-21.1464,11.6797,0,21.1475,9.4673,21.1475,21.1464Z"/>
          <path class="cls-17" d="M-15.46013,115.5781c0-8.5366,6.92103-15.4587,15.46013-15.4587,8.5378,0,15.4592,6.9221,15.4592,15.4587,0,8.5404-6.9214,15.4606-15.4592,15.4606-8.5391,0-15.46013-6.9202-15.46013-15.4606Z"/>
          <path class="cls-17" d="M9.7708,115.5781c0,5.3993-4.3748,9.7707-9.7708,9.7707-5.3973,0-9.7721-4.3714-9.7721-9.7707,0-5.394,4.3748-9.7709,9.7721-9.7709,5.396,0,9.7708,4.3769,9.7708,9.7709Z"/>
        </g>
        <g>
          <path class="cls-17" d="M106.1647,115.5781c0,11.6814-9.4679,21.1506-21.1476,21.1506-11.6809,0-21.1481-9.4692-21.1481-21.1506,0-11.6791,9.4672-21.1464,21.1481-21.1464,11.6797,0,21.1476,9.4673,21.1476,21.1464Z"/>
          <path class="cls-17" d="M69.557,115.5781c0-8.5366,6.921-15.4587,15.4602-15.4587,8.5378,0,15.4591,6.9221,15.4591,15.4587,0,8.5404-6.9213,15.4606-15.4591,15.4606-8.5392,0-15.4602-6.9202-15.4602-15.4606Z"/>
          <path class="cls-17" d="M94.7879,115.5781c0,5.3993-4.3748,9.7707-9.7707,9.7707-5.3973,0-9.7721-4.3714-9.7721-9.7707,0-5.394,4.3748-9.7709,9.7721-9.7709,5.3959,0,9.7707,4.3769,9.7707,9.7709Z"/>
        </g>
        <g>
          <path class="cls-17" d="M84.9104,131.1859c0,11.6815-9.4678,21.1506-21.1476,21.1506-11.6809,0-21.1481-9.4691-21.1481-21.1506,0-11.6791,9.4672-21.1464,21.1481-21.1464,11.6798,0,21.1476,9.4673,21.1476,21.1464Z"/>
          <path class="cls-17" d="M48.3027,131.1859c0-8.5365,6.921-15.4586,15.4602-15.4586,8.5378,0,15.4591,6.9221,15.4591,15.4586,0,8.5404-6.9213,15.46067-15.4591,15.46067-8.5392,0-15.4602-6.92027-15.4602-15.46067Z"/>
          <path class="cls-17" d="M73.5336,131.1859c0,5.3993-4.3747,9.7707-9.7707,9.7707-5.3973,0-9.7721-4.3714-9.7721-9.7707,0-5.394,4.3748-9.7708,9.7721-9.7708,5.396,0,9.7707,4.3768,9.7707,9.7708Z"/>
        </g>
        <g>
          <path class="cls-17" d="M42.4018,131.1859c0,11.6815-9.4678,21.1506-21.1475,21.1506C9.5733,152.3365,.1061,142.8674,.1061,131.1859c0-11.6791,9.4672-21.1464,21.1482-21.1464,11.6797,0,21.1475,9.4673,21.1475,21.1464Z"/>
          <path class="cls-17" d="M5.7942,131.1859c0-8.5365,6.921-15.4586,15.4601-15.4586,8.5378,0,15.4591,6.9221,15.4591,15.4586,0,8.5404-6.9213,15.46067-15.4591,15.46067-8.5391,0-15.4601-6.92027-15.4601-15.46067Z"/>
          <path class="cls-17" d="M31.0251,131.1859c0,5.3993-4.3748,9.7707-9.7708,9.7707-5.3973,0-9.7721-4.3714-9.7721-9.7707,0-5.394,4.3748-9.7708,9.7721-9.7708,5.396,0,9.7708,4.3768,9.7708,9.7708Z"/>
        </g>
      </g>
    </pattern>
    <clipPath id="clippath-8">
      <polygon class="cls-1" points="1142.77993 230.64585 1033.52355 230.64585 978.89537 325.26464 1033.52355 419.88344 1142.77993 419.88344 1197.40812 325.26464 1142.77993 230.64585"/>
    </clipPath>
    <pattern id="_新規パターンスウォッチ_1" data-name="新規パターンスウォッチ 1" x="0" y="0" width="30.98836" height="53.67339" patternTransform="translate(-508.32453 -597.80477) scale(.9414)" patternUnits="userSpaceOnUse" viewBox="0 0 30.98836 53.67339">
      <g>
        <rect class="cls-1" width="30.98836" height="53.67339"/>
        <g>
          <circle class="cls-1" cx="15.49416" cy="26.8367" r="4.2209"/>
          <path class="cls-16" d="M16.26756,24.5055c0,.4271-.3462,.7734-.7734,.7734-.4271,0-.7734-.3463-.7734-.7734,0-.4272,.3463-.7735,.7734-.7735,.4272,0,.7734,.3463,.7734,.7735Z"/>
          <circle class="cls-16" cx="15.49416" cy="29.1679" r=".7734"/>
          <path class="cls-16" d="M15.54336,26.0633c.4271,0,.7734,.3462,.7734,.7734,0,.4271-.3463,.7734-.7734,.7734-.4272,0-.7735-.3463-.7735-.7734,0-.4272,.3463-.7734,.7735-.7734Z"/>
          <path class="cls-16" d="M14.03866,25.0891c.3499,.245,.4349,.7272,.1899,1.0771s-.7273,.4349-1.0772,.1899c-.3498-.245-.4349-.7272-.1899-1.0771s.7273-.4349,1.0772-.1899Z"/>
          <path class="cls-16" d="M17.85786,27.3563c.3499,.245,.435,.7273,.19,1.0772s-.7273,.4349-1.0772,.1899-.4349-.7272-.1899-1.0771,.7272-.435,1.0771-.19Z"/>
          <path class="cls-16" d="M16.97066,25.0891c-.3499,.245-.4349,.7272-.1899,1.0771s.7272,.4349,1.0771,.1899,.435-.7272,.19-1.0771-.7273-.4349-1.0772-.1899Z"/>
          <path class="cls-16" d="M13.15136,27.3563c-.3498,.245-.4349,.7273-.1899,1.0772s.7273,.4349,1.0772,.1899,.4349-.7272,.1899-1.0771-.7273-.435-1.0772-.19Z"/>
        </g>
        <g>
          <circle class="cls-1" cx="-.04193" r="4.22091"/>
          <path class="cls-16" d="M.73149-2.3312C.73149-1.9041,.38522-1.5578-.04193-1.5578s-.77341-.3463-.77341-.7734c0-.4272,.34627-.7735,.77341-.7735s.77342,.3463,.77342,.7735Z"/>
          <circle class="cls-16" cx="-.04193" cy="2.3312" r=".77341"/>
          <circle class="cls-16" cx=".00722" r=".7734"/>
          <path class="cls-16" d="M-1.49747-1.7476c.3499,.245,.43493,.7272,.18993,1.0771s-.72726,.4349-1.07715,.1899c-.3499-.245-.43493-.7272-.18993-1.0771s.72725-.4349,1.07715-.1899Z"/>
          <path class="cls-16" d="M2.3218,.5196c.34989,.245,.43493,.7273,.18993,1.0772s-.72726,.4349-1.07716,.1899c-.34989-.245-.43493-.7272-.18993-1.0771s.72726-.435,1.07716-.19Z"/>
          <path class="cls-16" d="M1.43457-1.7476c-.34989,.245-.43493,.7272-.18993,1.0771s.72726,.4349,1.07716,.1899c.34989-.245,.43493-.7272,.18993-1.0771s-.72726-.4349-1.07716-.1899Z"/>
          <path class="cls-16" d="M-2.38469,.5196c-.3499,.245-.43493,.7273-.18993,1.0772s.72725,.4349,1.07715,.1899,.43493-.7272,.18993-1.0771-.72726-.435-1.07715-.19Z"/>
        </g>
        <g>
          <circle class="cls-1" cx="30.94646" r="4.2209"/>
          <path class="cls-16" d="M31.71986-2.3312c0,.4271-.3463,.7734-.7734,.7734-.4272,0-.7734-.3463-.7734-.7734,0-.4272,.3462-.7735,.7734-.7735,.4271,0,.7734,.3463,.7734,.7735Z"/>
          <circle class="cls-16" cx="30.94646" cy="2.3312" r=".7734"/>
          <circle class="cls-16" cx="30.99556" r=".7734"/>
          <path class="cls-16" d="M29.49086-1.7476c.3499,.245,.435,.7272,.19,1.0771s-.7273,.4349-1.0772,.1899-.4349-.7272-.1899-1.0771,.7272-.4349,1.0771-.1899Z"/>
          <path class="cls-16" d="M33.31016,.5196c.3499,.245,.4349,.7273,.1899,1.0772s-.7272,.4349-1.0771,.1899-.435-.7272-.19-1.0771,.7273-.435,1.0772-.19Z"/>
          <path class="cls-16" d="M32.42296-1.7476c-.3499,.245-.435,.7272-.19,1.0771s.7273,.4349,1.0772,.1899,.4349-.7272,.1899-1.0771-.7272-.4349-1.0771-.1899Z"/>
          <path class="cls-16" d="M28.60366,.5196c-.3499,.245-.4349,.7273-.1899,1.0772s.7272,.4349,1.0771,.1899,.435-.7272,.19-1.0771-.7273-.435-1.0772-.19Z"/>
        </g>
        <g>
          <circle class="cls-1" cx="-.04193" cy="53.67339" r="4.22091"/>
          <circle class="cls-16" cx="-.04193" cy="51.34216" r=".77341"/>
          <circle class="cls-16" cx="-.04193" cy="56.00462" r=".77341"/>
          <circle class="cls-16" cx=".00722" cy="53.67339" r=".77341"/>
          <circle class="cls-16" cx="-1.94108" cy="52.5593" r=".77341"/>
          <path class="cls-16" d="M2.3218,54.19304c.34989,.245,.43493,.72726,.18993,1.07716s-.72726,.43493-1.07716,.18993c-.34989-.245-.43493-.72726-.18993-1.07715,.245-.3499,.72726-.43494,1.07716-.18994Z"/>
          <circle class="cls-16" cx="1.87819" cy="52.5593" r=".77342"/>
          <path class="cls-16" d="M-2.38469,54.19304c-.3499,.245-.43493,.72726-.18993,1.07716s.72725,.43493,1.07715,.18993,.43493-.72726,.18993-1.07715c-.245-.3499-.72726-.43494-1.07715-.18994Z"/>
        </g>
        <g>
          <path class="cls-1" d="M35.16736,53.67339c0,2.33114-1.8898,4.22091-4.2209,4.22091s-4.2209-1.88977-4.2209-4.22091c0-.67928,.1604-1.32108,.4455-1.88956,.6933-1.38246,2.1235-2.33136,3.7754-2.33136,2.3311,0,4.2209,1.88977,4.2209,4.22092Z"/>
          <circle class="cls-16" cx="30.94646" cy="51.34216" r=".77341" transform="translate(-23.1952 77.07891) rotate(-84.34507)"/>
          <circle class="cls-16" cx="30.94646" cy="56.00462" r=".77341" transform="translate(-27.83497 81.28195) rotate(-84.34507)"/>
          <circle class="cls-16" cx="30.99556" cy="53.67339" r=".77341"/>
          <path class="cls-16" d="M29.49086,51.92576c.3499,.245,.435,.72726,.19,1.07716-.245,.34989-.7273,.43493-1.0772,.18993s-.4349-.72726-.1899-1.07716c.245-.34989,.7272-.43493,1.0771-.18993Z"/>
          <path class="cls-16" d="M33.31016,54.19304c.3499,.245,.4349,.72726,.1899,1.07716s-.7272,.43493-1.0771,.18993-.435-.72726-.19-1.07715c.245-.3499,.7273-.43494,1.0772-.18994Z"/>
          <path class="cls-16" d="M32.42296,51.92576c-.3499,.245-.435,.72726-.19,1.07716,.245,.34989,.7273,.43493,1.0772,.18993s.4349-.72726,.1899-1.07716c-.245-.34989-.7272-.43493-1.0771-.18993Z"/>
          <path class="cls-16" d="M28.60366,54.19304c-.3499,.245-.4349,.72726-.1899,1.07716s.7272,.43493,1.0771,.18993,.435-.72726,.19-1.07715c-.245-.3499-.7273-.43494-1.0772-.18994Z"/>
        </g>
        <line class="cls-3" x1="3.49207" y1="51.3657" x2="15.49416" y2="43.4343"/>
        <line class="cls-3" x1="26.72556" y1="53.67339" x2="4.17899" y2="53.67339"/>
        <line class="cls-3" x1="30.98836" y1="4.2209" x2="30.98836" y2="49.45247"/>
        <polyline class="cls-3" points="15.49416 22.6158 15.49416 10.2391 3.49228 2.3078"/>
        <polyline class="cls-3" points="27.43916 51.32794 15.49416 43.4343 15.49416 31.0576"/>
        <line class="cls-3" x1="17.74356" y1="30.7327" x2="28.86856" y2="50.00179"/>
        <line class="cls-3" x1="2.09582" y1="3.6301" x2="13.38536" y2="23.1841"/>
        <line class="cls-3" x1="19.71506" y1="26.8367" x2="33.59946" y2="26.8367"/>
        <line class="cls-3" x1="-2.61111" y1="26.8367" x2="11.27326" y2="26.8367"/>
        <line class="cls-3" x1="19.69256" y1="29.2606" x2="31.89696" y2="36.3068"/>
        <line class="cls-3" x1="-.90862" y1="17.3665" x2="11.84156" y2="24.7279"/>
        <line class="cls-3" x1="19.14676" y1="24.7279" x2="31.89696" y2="17.3665"/>
        <line class="cls-3" x1="-.90862" y1="36.3068" x2="11.84146" y2="28.9456"/>
        <line class="cls-3" x1="17.57976" y1="23.2244" x2="28.86866" y2="3.6714"/>
        <line class="cls-3" x1="26.72546" x2="4.17898"/>
        <line class="cls-3" x1="15.49416" y1="10.2391" x2="27.43766" y2="2.3464"/>
        <line class="cls-3" x1="2.09753" y1="50.04036" x2="13.38536" y2="30.4893"/>
        <line class="cls-3" y1="4.2209" y2="49.45247"/>
        <path class="cls-3" d="M2.51173,52.11569"/>
        <path class="cls-3" d="M1.87819,49.91371"/>
      </g>
    </pattern>
    <clipPath id="clippath-9">
      <polygon class="cls-1" points="328.17725 325.44182 218.92087 325.44182 164.29268 420.06062 218.92087 514.67941 328.17725 514.67941 382.80543 420.06062 328.17725 325.44182"/>
    </clipPath>
    <pattern id="_新規パターンスウォッチ_23" data-name="新規パターンスウォッチ 23" x="0" y="0" width="34.0156" height="34.0166" patternTransform="translate(-330.09235 -537.74191) scale(.9414)" patternUnits="userSpaceOnUse" viewBox="0 0 34.0156 34.0166">
      <g>
        <rect class="cls-1" x="0" y="0" width="34.0156" height="34.0166"/>
        <g>
          <path class="cls-16" d="M8.50391,3.373c-.76953,0-1.39551,.626-1.39551,1.3956,0,.7685,.62598,1.3945,1.39551,1.3945,.76855,0,1.39453-.626,1.39453-1.3945,0-.7696-.62598-1.3956-1.39453-1.3956Z"/>
          <path class="cls-16" d="M8.50391,10.8467c-.76953,0-1.39551,.625-1.39551,1.3945s.62598,1.3955,1.39551,1.3955c.76855,0,1.39453-.626,1.39453-1.3955s-.62598-1.3945-1.39453-1.3945Z"/>
          <path class="cls-16" d="M4.76758,7.1103c-.76953,0-1.39551,.626-1.39551,1.3946,0,.7695,.62598,1.3955,1.39551,1.3955,.76855,0,1.39355-.626,1.39355-1.3955,0-.7686-.625-1.3946-1.39355-1.3946Z"/>
          <path class="cls-16" d="M12.2402,7.1103c-.7695,0-1.3955,.626-1.3955,1.3946,0,.7695,.626,1.3955,1.3955,1.3955,.7696,0,1.3955-.626,1.3955-1.3955,0-.7686-.6259-1.3946-1.3955-1.3946Z"/>
        </g>
        <g>
          <path class="cls-16" d="M25.5117,20.3809c-.7695,0-1.3955,.6259-1.3955,1.3955,0,.7685,.626,1.3945,1.3955,1.3945,.7686,0,1.3946-.626,1.3946-1.3945,0-.7696-.626-1.3955-1.3946-1.3955Z"/>
          <path class="cls-16" d="M25.5117,27.85449c-.7695,0-1.3955,.625-1.3955,1.39453s.626,1.39551,1.3955,1.39551c.7686,0,1.3946-.62598,1.3946-1.39551s-.626-1.39453-1.3946-1.39453Z"/>
          <path class="cls-16" d="M21.7754,24.11816c-.7695,0-1.3955,.62598-1.3955,1.39453,0,.76953,.626,1.39551,1.3955,1.39551,.7685,0,1.3935-.62598,1.3935-1.39551,0-.76855-.625-1.39453-1.3935-1.39453Z"/>
          <path class="cls-16" d="M29.248,24.11816c-.7695,0-1.3955,.62598-1.3955,1.39453,0,.76953,.626,1.39551,1.3955,1.39551,.7696,0,1.3956-.62598,1.3956-1.39551,0-.76855-.626-1.39453-1.3956-1.39453Z"/>
        </g>
      </g>
    </pattern>
    <clipPath id="clippath-10">
      <polygon class="cls-1" points="165.29268 230.64585 56.03631 230.64585 1.40812 325.26464 56.03631 419.88344 165.29268 419.88344 219.92087 325.26464 165.29268 230.64585"/>
    </clipPath>
    <pattern id="_新規パターンスウォッチ_16" data-name="新規パターンスウォッチ 16" x="0" y="0" width="58.0677" height="50.19138" patternTransform="translate(-356.41883 -474.56513) scale(.9414)" patternUnits="userSpaceOnUse" viewBox="0 0 58.0677 50.19138">
      <g>
        <rect class="cls-1" y="0" width="58.0677" height="50.19138"/>
        <g>
          <polygon class="cls-2" points="43.5721 8.3691 43.5721 25.1072 58.0677 33.4762 72.5634 25.1072 72.5634 8.3691 58.0677 0 43.5721 8.3691"/>
          <polygon class="cls-2" points="48.1964 11.0389 48.1964 22.4374 58.0677 28.1366 67.9391 22.4374 67.9391 11.0389 58.0677 5.3396 48.1964 11.0389"/>
          <polygon class="cls-2" points="52.8206 13.7087 52.8206 19.7675 58.0677 22.797 63.3148 19.7675 63.3148 13.7087 58.0677 10.6793 52.8206 13.7087"/>
        </g>
        <g>
          <polygon class="cls-2" points="14.5809 8.3691 14.5809 25.1072 29.0765 33.4762 43.5721 25.1072 43.5721 8.3691 29.0765 0 14.5809 8.3691"/>
          <polygon class="cls-2" points="19.2051 11.0389 19.2051 22.4374 29.0765 28.1366 38.9478 22.4374 38.9478 11.0389 29.0765 5.3396 19.2051 11.0389"/>
          <polygon class="cls-2" points="23.8294 13.7087 23.8294 19.7675 29.0765 22.797 34.3236 19.7675 34.3236 13.7087 29.0765 10.6793 23.8294 13.7087"/>
        </g>
        <g>
          <polygon class="cls-2" points="58.0677 -16.7873 58.0677 -.0492 72.5634 8.3198 87.059 -.0492 87.059 -16.7873 72.5634 -25.1564 58.0677 -16.7873"/>
          <polygon class="cls-2" points="62.692 -14.1175 62.692 -2.719 72.5634 2.9802 82.4347 -2.719 82.4347 -14.1175 72.5634 -19.8167 62.692 -14.1175"/>
          <polygon class="cls-2" points="67.3163 -11.4477 67.3163 -5.3888 72.5634 -2.3594 77.8105 -5.3888 77.8105 -11.4477 72.5634 -14.4771 67.3163 -11.4477"/>
        </g>
        <g>
          <polygon class="cls-2" points="29.0765 -16.7873 29.0765 -.0492 43.5721 8.3198 58.0677 -.0492 58.0677 -16.7873 43.5721 -25.1564 29.0765 -16.7873"/>
          <polygon class="cls-2" points="33.7007 -14.1175 33.7007 -2.719 43.5721 2.9802 53.4435 -2.719 53.4435 -14.1175 43.5721 -19.8167 33.7007 -14.1175"/>
          <polygon class="cls-2" points="38.325 -11.4477 38.325 -5.3888 43.5721 -2.3594 48.8192 -5.3888 48.8192 -11.4477 43.5721 -14.4771 38.325 -11.4477"/>
        </g>
        <g>
          <polygon class="cls-2" points=".0852 -16.7873 .0852 -.0492 14.5809 8.3198 29.0765 -.0492 29.0765 -16.7873 14.5809 -25.1564 .0852 -16.7873"/>
          <polygon class="cls-2" points="4.7095 -14.1175 4.7095 -2.719 14.5809 2.9802 24.4522 -2.719 24.4522 -14.1175 14.5809 -19.8167 4.7095 -14.1175"/>
          <polygon class="cls-2" points="9.3337 -11.4477 9.3337 -5.3888 14.5809 -2.3594 19.828 -5.3888 19.828 -11.4477 14.5809 -14.4771 9.3337 -11.4477"/>
        </g>
        <g>
          <polygon class="cls-2" points="-28.90603 -16.7873 -28.90603 -.0492 -14.4104 8.3198 .0852 -.0492 .0852 -16.7873 -14.4104 -25.1564 -28.90603 -16.7873"/>
          <polygon class="cls-2" points="-24.28177 -14.1175 -24.28177 -2.719 -14.4104 2.9802 -4.539 -2.719 -4.539 -14.1175 -14.4104 -19.8167 -24.28177 -14.1175"/>
          <polygon class="cls-2" points="-19.6575 -11.4477 -19.6575 -5.3888 -14.4104 -2.3594 -9.1633 -5.3888 -9.1633 -11.4477 -14.4104 -14.4771 -19.6575 -11.4477"/>
        </g>
        <g>
          <polygon class="cls-2" points="58.0677 33.4533 58.0677 50.19138 72.5634 58.56043 87.059 50.19138 87.059 33.4533 72.5634 25.0842 58.0677 33.4533"/>
          <polygon class="cls-2" points="62.692 36.1231 62.692 47.5216 72.5634 53.2208 82.4347 47.5216 82.4347 36.1231 72.5634 30.4238 62.692 36.1231"/>
          <polygon class="cls-2" points="67.3163 38.7929 67.3163 44.8517 72.5634 47.8812 77.8105 44.8517 77.8105 38.7929 72.5634 35.7635 67.3163 38.7929"/>
        </g>
        <g>
          <polygon class="cls-2" points="29.0765 33.4533 29.0765 50.19138 43.5721 58.56043 58.0677 50.19138 58.0677 33.4533 43.5721 25.0842 29.0765 33.4533"/>
          <polygon class="cls-2" points="33.7007 36.1231 33.7007 47.5216 43.5721 53.2208 53.4435 47.5216 53.4435 36.1231 43.5721 30.4238 33.7007 36.1231"/>
          <polygon class="cls-2" points="38.325 38.7929 38.325 44.8517 43.5721 47.8812 48.8192 44.8517 48.8192 38.7929 43.5721 35.7635 38.325 38.7929"/>
        </g>
        <g>
          <polygon class="cls-2" points=".0852 33.4533 .0852 50.19138 14.5809 58.56043 29.0765 50.19138 29.0765 33.4533 14.5809 25.0842 .0852 33.4533"/>
          <polygon class="cls-2" points="4.7095 36.1231 4.7095 47.5216 14.5809 53.2208 24.4522 47.5216 24.4522 36.1231 14.5809 30.4238 4.7095 36.1231"/>
          <polygon class="cls-2" points="9.3337 38.7929 9.3337 44.8517 14.5809 47.8812 19.828 44.8517 19.828 38.7929 14.5809 35.7635 9.3337 38.7929"/>
        </g>
        <g>
          <polygon class="cls-2" points="-28.90603 33.4533 -28.90603 50.19138 -14.4104 58.56043 .0852 50.19138 .0852 33.4533 -14.4104 25.0842 -28.90603 33.4533"/>
          <polygon class="cls-2" points="-24.28177 36.1231 -24.28177 47.5216 -14.4104 53.2208 -4.539 47.5216 -4.539 36.1231 -14.4104 30.4238 -24.28177 36.1231"/>
          <polygon class="cls-2" points="-19.6575 38.7929 -19.6575 44.8517 -14.4104 47.8812 -9.1633 44.8517 -9.1633 38.7929 -14.4104 35.7635 -19.6575 38.7929"/>
        </g>
        <g>
          <polygon class="cls-2" points="-14.4104 8.3691 -14.4104 25.1072 .0852 33.4762 14.5809 25.1072 14.5809 8.3691 .0852 0 -14.4104 8.3691"/>
          <polygon class="cls-2" points="-9.7861 11.0389 -9.7861 22.4374 .0852 28.1366 9.9566 22.4374 9.9566 11.0389 .0852 5.3396 -9.7861 11.0389"/>
          <polygon class="cls-2" points="-5.1619 13.7087 -5.1619 19.7675 .0852 22.797 5.3323 19.7675 5.3323 13.7087 .0852 10.6793 -5.1619 13.7087"/>
        </g>
      </g>
    </pattern>
    <clipPath id="clippath-11">
      <polygon class="cls-1" points="816.61751 41.0539 707.36114 41.0539 652.73295 135.6727 707.36114 230.2915 816.61751 230.2915 871.2457 135.6727 816.61751 41.0539"/>
    </clipPath>
  </defs>
  <g class="cls-15">
    <g>
      <rect x="317.15066" y="210.14691" width="236.87854" height="236.87858"/>
      <rect class="cls-9" x="317.15066" y="210.14691" width="236.87854" height="236.87858"/>
    </g>
  </g>
  <g class="cls-20">
    <g>
      <rect x="304.91588" width="247.49224" height="247.49224"/>
      <rect class="cls-12" x="304.91588" width="247.49224" height="247.49224"/>
    </g>
  </g>
  <g class="cls-23">
    <g>
      <rect x="490.01155" y="125.94699" width="224.39657" height="224.39661"/>
      <rect class="cls-13" x="490.01155" y="125.94699" width="224.39657" height="224.39661"/>
    </g>
  </g>
  <g class="cls-22">
    <g>
      <rect x="652.80531" y="214.93682" width="232.60281" height="221.41836"/>
      <rect class="cls-8" x="652.80531" y="214.93682" width="232.60281" height="221.41836"/>
    </g>
  </g>
  <g class="cls-21">
    <g>
      <rect x="157.91588" y="121" width="229.35517" height="229.35517"/>
      <rect class="cls-19" x="157.91588" y="121" width="229.35517" height="229.35517"/>
    </g>
  </g>
  <g class="cls-27">
    <g>
      <rect x="477.01155" y="303.94701" width="231.39657" height="231.39657"/>
      <rect class="cls-14" x="477.01155" y="303.94701" width="231.39657" height="231.39657"/>
    </g>
  </g>
  <g class="cls-26">
    <g>
      <rect x="648.01155" y="393.94699" width="241.39657" height="241.39661"/>
      <rect class="cls-10" x="648.01155" y="393.94699" width="241.39657" height="241.39661"/>
    </g>
  </g>
  <g class="cls-24">
    <rect class="cls-11" x="801.7767" y="114.6648" width="233.63142" height="233.63142"/>
  </g>
  <g class="cls-25">
    <g>
      <rect x="984.6355" y="217.96939" width="212.77262" height="212.77262"/>
      <rect class="cls-18" x="984.6355" y="217.96939" width="212.77262" height="212.77262"/>
    </g>
  </g>
  <g class="cls-28">
    <g>
      <rect x="157.7767" y="300.6648" width="225.63142" height="225.63142"/>
      <rect class="cls-6" x="157.7767" y="300.6648" width="225.63142" height="225.63142"/>
    </g>
  </g>
  <g class="cls-29">
    <g>
      <rect y="216.01764" width="220.40812" height="220.40815"/>
      <rect class="cls-7" y="216.01764" width="220.40812" height="220.40815"/>
    </g>
  </g>
  <g class="cls-30">
    <g>
      <rect x="630.70559" y="8.04245" width="269.70252" height="242.31272"/>
      <rect class="cls-18" x="630.70559" y="8.04245" width="269.70252" height="242.31272"/>
    </g>
  </g>
</svg>