<?xml version="1.0" encoding="UTF-8"?>
<svg id="_レイヤー_1" data-name="レイヤー 1" xmlns="http://www.w3.org/2000/svg" xmlns:xlink="http://www.w3.org/1999/xlink" viewBox="0 0 1125 2436">
  <defs>
    <style>
      .cls-1 {
        fill: none;
      }

      .cls-2 {
        clip-path: url(#clippath);
      }

      .cls-3 {
        fill: #eee;
      }

      .cls-4 {
        fill: #909293;
        opacity: .5;
      }

      .cls-4, .cls-5 {
        isolation: isolate;
      }
    </style>
    <clipPath id="clippath">
      <rect class="cls-1" x="207.89996" y="629.29999" width="737.10001" height="620.70001"/>
    </clipPath>
  </defs>
  <g id="_レイヤー_3" data-name="レイヤー 3">
    <g class="cls-2">
      <image class="cls-5" width="1125" height="2436" transform="translate(432.99997 1205) scale(.2053)" xlink:href="../../../../../../../../Downloads/myStudy08.PNG"/>
    </g>
  </g>
  <g id="_レイヤー_1-2" data-name="レイヤー 1">
    <g id="_レイヤー_2" data-name=" レイヤー 2">
      <rect class="cls-4" width="1125" height="2436"/>
    </g>
  </g>
  <g id="_レイヤー_2-2" data-name="レイヤー 2">
    <g id="_レイヤー_1-3" data-name=" レイヤー 1">
      <path class="cls-3" d="M576.40002,958.40002c-124.29999,0-225,100.69995-225,225s100.70001,225,225,225,225-100.69995,225-225-100.70001-225-225-225h0Zm193.19995,293.29993c-9.09998,25.30005-22.70001,50.30005-41,70-7,7.59998-15,14.40002-23.79999,19.80005-21.70001,13.40002-49.79999,17.80005-73.09998,5.69995-10.79999-5.59998-20.40002-14.80005-27.40002-24.69995-4.59998-6.59998-8.40002-13.69995-12-20.90002-11.59998-23.5-18-50-33-71.69995-2.09998-3-4.29999-5.90002-6.70001-8.59998-8.5-9.69995-18.59998-16.5-29.70001-22.80005-12-6.80005-25.79999-9.59998-38.79999-14.09998-6.10001-2.09998-12-4.40002-18.10001-6.30005-6.70001-2.09998-13.29999-4.30005-19.5-7.59998-8.89999-4.69995-17-10.69995-24.20001-17.59998-9.5-9.19995-16.89999-21.80005-20-34.69995-4.5-19,.10001-38.90002,9.70001-55.59998,8.60001-15,21-27.5,34.60001-38.09998,20.89999-16.40002,44.39999-28.09998,69.59998-36.20001,17.20001-5.5,35.70001-8,53.90002-8.40002h4.5c28.40002,.09998,56.79999,5.90002,82.90002,17,24.29999,10.40002,46.29999,25.29999,64.90002,44.10004,16.5,16.80005,30.20001,36.30005,40,57.69995,11.29999,24.69995,17.90002,51.5,18.29999,78.69995,.20001,13-.79999,26-2.79999,38.90002-1.90002,12.09998-4.10004,23.79993-8.30005,35.3999h0Z"/>
      <path class="cls-3" d="M732.5,1130.09998c-5.40002-15.19995-13.29999-29.5-22.70001-42.59998-20.79999-28.80005-50.70001-50.90002-84.90002-61-26.79999-8-56.29999-10-83.79999-4.90002-10.40002,2-20.70001,5-30.70001,9.19995-4.89999,2-9.70001,4.30005-14.39999,6.69995-12.20001,6.30005-23.60001,14.40002-33.29999,24.19995-9.20001,9.19995-18,20.19995-22.20001,32.80005-4.60001,13.80005-3.70001,29.40002,4.79999,41.40002,7.20001,10.19995,16.60001,18.80005,27.29999,25.19995,10.60001,6.30005,22.79999,9.90002,34.5,13.59998,12.10001,3.90002,24.00003,9,34.69998,16,24.5,16.09998,36.90002,42.80005,49.29999,68.19995,5,10.19995,10,20.40002,16.40002,29.69995,6.40002,9.30005,14.40002,17.69995,24.29999,23.30005,8.59998,4.80005,18.59998,7.30005,28.40002,6,8.79999-1.09998,16.29999-5.69995,23.5-10.69995,14.5-10.09998,26.59998-23.59998,35.59998-38.69995,3.90002-6.5,7.29999-13.40002,10.09998-20.5,14.50012-36.79993,16.40009-80.3999,3.1001-117.8999h0Zm-37.40002,99.20007c-8.29999,22-27.79999,58.59998-56.29999,53.80005-8.70001-1.5-16.5-6.19995-22.90002-12.30005-16.20001-15.40002-21.29999-37-33.40002-55-18.79999-27.90002-50.09998-42.59998-79.39999-56.59998-9.5-4.59998-20.5-9.90002-26.10001-19.30005-4-6.80005-5.60001-15.09998-4.39999-22.90002,1.20001-7.69995,5-14.80005,10-20.80005s11.20001-10.90002,17.5-15.40002c6.29999-4.40002,12.89999-8.40002,19.89999-11.80005,10.70001-5.19995,21.90002-8.59998,33.40002-10.19995,28-4.09998,57.29999,1.80005,83.20001,14,31.70001,14.90002,54.09998,48,62,81.5,5.90002,24.70007,5.5,51.00012-3.5,75.00012h0Z"/>
      <path class="cls-3" d="M663.70001,1171.5c-2.09998-14.80005-8-29.09998-17-41.09998-3.40002-4.5-7.29999-8.80005-11.70001-12.40002-3.59998-3-7.59998-5.59998-11.70001-8-9.20001-5.40002-18.70001-9.59998-29.20001-11.59998-.90002-.19995-1.79999-.30005-2.59998-.5-9.59998-1.5-19.29999-1.5-28.90002,0-7.5,1.19995-15,3-22.09998,5.69995-2.59998,1-5.09998,2.09998-7.59998,3.30005-7.09998,3.69995-13.40002,8.80005-18.29999,15.09998-2.89999,3.69995-5.39999,7.90002-6,12.59998-1,7.19995,2.79999,14.40002,8.20001,19.30005s12.09998,8,18.79999,10.90002c16.90002,7.5,32.29999,18.19995,44.59998,32.09998,5.90002,6.69995,11.20001,14,15.5,21.90002,5.5,10,10.20001,23.40002,21,28.80005,7.20001,3.59998,16.29999,2.5,23-1.80005,3.79999-2.40002,6.90002-5.69995,9.5-9.30005,1.59998-2.19995,3.09998-4.59998,4.40002-7,9.89996-17.59998,12.89996-38,10.09998-58h0Zm-32.29999,18.5c-1.59998,11.59998-9.90002,29.69995-24.59998,23.90002-7-2.80005-11.09998-9.5-15.40002-15.19995-4.5-5.90002-9-11.90002-14.5-17-6.70001-6.30005-14.59998-11-22.09998-16.30005-3.40002-2.40002-7-4.59998-8.90002-8.40002-1.70001-3.69995-1.90002-8.09998-.20001-11.80005,.90002-2,2.20001-3.80005,3.70001-5.30005,6.20001-6.5,15.29999-9,23.90002-10,2.40002-.30005,4.90002-.40002,7.29999-.30005,7.5,.19995,15,1.90002,21.70001,5.19995,2.90002,1.40002,5.70001,3.09998,8.29999,5,15.89996,11.50024,23.49994,30.80017,20.79999,50.2002h0Z"/>
    </g>
  </g>
</svg>