<?xml version="1.0" encoding="utf-8"?>
<!-- Generator: Adobe Illustrator 26.5.1, SVG Export Plug-In . SVG Version: 6.00 Build 0)  -->
<svg version="1.1" xmlns="http://www.w3.org/2000/svg" xmlns:xlink="http://www.w3.org/1999/xlink" x="0px" y="0px"
	 viewBox="0 0 1125 2436" style="enable-background:new 0 0 1125 2436;" xml:space="preserve">
<style type="text/css">
	.st0{display:none;}
	.st1{display:inline;}
	.st2{display:none;opacity:0.24;}
	.st3{opacity:0.24;}
	.st4{opacity:0.5;fill:#B6D4EF;enable-background:new    ;}
	.st5{fill:#4880D9;}
</style>
<g id="レイヤー_3">
	<g class="st0">
		<defs>
			<rect id="SVGID_1_" x="75.1" y="501.4" width="969.2" height="1835"/>
		</defs>
		<clipPath id="SVGID_00000085249468865646217220000001654434977801147824_" class="st1">
			<use xlink:href="#SVGID_1_"  style="overflow:visible;"/>
		</clipPath>
		<g style="display:inline;clip-path:url(#SVGID_00000085249468865646217220000001654434977801147824_);">
			
				<image style="overflow:visible;" width="386" height="835" xlink:href="../../../../../../../../Downloads/mobile (2).png"  transform="matrix(2.524 0 0 2.524 75.0749 263.7091)">
			</image>
		</g>
	</g>
	<g class="st2">
		<defs>
			
				<rect id="SVGID_00000110456986223802146430000002007958586152577193_" x="77.9" y="300.5" class="st3" width="969.2" height="1835"/>
		</defs>
		<clipPath id="SVGID_00000118355868888428465240000005629953101421054372_" class="st1">
			<use xlink:href="#SVGID_00000110456986223802146430000002007958586152577193_"  style="overflow:visible;"/>
		</clipPath>
		
			<g transform="matrix(1 0 0 1 -7.629395e-06 0)" style="display:inline;clip-path:url(#SVGID_00000118355868888428465240000005629953101421054372_);">
			
				<image style="overflow:visible;" width="386" height="835" xlink:href="../../../../../../../../Downloads/mobile (3).png"  transform="matrix(2.4793 0 0 2.4793 84.001 65.3023)">
			</image>
		</g>
	</g>
	
		<image style="display:none;overflow:visible;" width="3859" height="5457" xlink:href="../../../../../../../../Desktop/A3CONP.jpg"  transform="matrix(0.2759 0 0 0.3269 30.1427 326.1731)">
	</image>
	
		<image style="display:none;overflow:visible;" width="4080" height="5739" xlink:href="../../../../../../../../Desktop/lp.png"  transform="matrix(0.24 0 0 0.24 86.8315 494.7681)">
	</image>
	<g>
		<defs>
			<rect id="SVGID_00000039822122203397357300000010516213658417947575_" x="207.9" y="629.3" width="737.1" height="620.7"/>
		</defs>
		<clipPath id="SVGID_00000054245339444910060450000017031995993175292820_">
			<use xlink:href="#SVGID_00000039822122203397357300000010516213658417947575_"  style="overflow:visible;"/>
		</clipPath>
		
			<g transform="matrix(1 0 0 1 -3.051758e-05 0)" style="clip-path:url(#SVGID_00000054245339444910060450000017031995993175292820_);">
			
				<image style="overflow:visible;" width="1125" height="2436" xlink:href="../../../../../../../../Downloads/myStudy08.PNG"  transform="matrix(0.2053 0 0 0.2053 433 1205)">
			</image>
		</g>
	</g>
</g>
<g id="レイヤー_1">
	<g id="_レイヤー_2">
		<rect class="st4" width="1125" height="2436"/>
	</g>
</g>
<g id="レイヤー_2">
	<g id="_レイヤー_1">
		<path class="st5" d="M576.4,958.4c-124.3,0-225,100.7-225,225s100.7,225,225,225s225-100.7,225-225S700.7,958.4,576.4,958.4
			L576.4,958.4z M769.6,1251.7c-9.1,25.3-22.7,50.3-41,70c-7,7.6-15,14.4-23.8,19.8c-21.7,13.4-49.8,17.8-73.1,5.7
			c-10.8-5.6-20.4-14.8-27.4-24.7c-4.6-6.6-8.4-13.7-12-20.9c-11.6-23.5-18-50-33-71.7c-2.1-3-4.3-5.9-6.7-8.6
			c-8.5-9.7-18.6-16.5-29.7-22.8c-12-6.8-25.8-9.6-38.8-14.1c-6.1-2.1-12-4.4-18.1-6.3c-6.7-2.1-13.3-4.3-19.5-7.6
			c-8.9-4.7-17-10.7-24.2-17.6c-9.5-9.2-16.9-21.8-20-34.7c-4.5-19,0.1-38.9,9.7-55.6c8.6-15,21-27.5,34.6-38.1
			c20.9-16.4,44.4-28.1,69.6-36.2c17.2-5.5,35.7-8,53.9-8.4c1.5,0,3,0,4.5,0c28.4,0.1,56.8,5.9,82.9,17
			c24.3,10.4,46.3,25.3,64.9,44.1c16.5,16.8,30.2,36.3,40,57.7c11.3,24.7,17.9,51.5,18.3,78.7c0.2,13-0.8,26-2.8,38.9
			C776,1228.4,773.8,1240.1,769.6,1251.7L769.6,1251.7L769.6,1251.7z"/>
		<path class="st5" d="M732.5,1130.1c-5.4-15.2-13.3-29.5-22.7-42.6c-20.8-28.8-50.7-50.9-84.9-61c-26.8-8-56.3-10-83.8-4.9
			c-10.4,2-20.7,5-30.7,9.2c-4.9,2-9.7,4.3-14.4,6.7c-12.2,6.3-23.6,14.4-33.3,24.2c-9.2,9.2-18,20.2-22.2,32.8
			c-4.6,13.8-3.7,29.4,4.8,41.4c7.2,10.2,16.6,18.8,27.3,25.2c10.6,6.3,22.8,9.9,34.5,13.6c12.1,3.9,24,9,34.7,16
			c24.5,16.1,36.9,42.8,49.3,68.2c5,10.2,10,20.4,16.4,29.7c6.4,9.3,14.4,17.7,24.3,23.3c8.6,4.8,18.6,7.3,28.4,6
			c8.8-1.1,16.3-5.7,23.5-10.7c14.5-10.1,26.6-23.6,35.6-38.7c3.9-6.5,7.3-13.4,10.1-20.5C743.9,1211.2,745.8,1167.6,732.5,1130.1
			L732.5,1130.1L732.5,1130.1z M695.1,1229.3c-8.3,22-27.8,58.6-56.3,53.8c-8.7-1.5-16.5-6.2-22.9-12.3c-16.2-15.4-21.3-37-33.4-55
			c-18.8-27.9-50.1-42.6-79.4-56.6c-9.5-4.6-20.5-9.9-26.1-19.3c-4-6.8-5.6-15.1-4.4-22.9c1.2-7.7,5-14.8,10-20.8
			c5-6,11.2-10.9,17.5-15.4c6.3-4.4,12.9-8.4,19.9-11.8c10.7-5.2,21.9-8.6,33.4-10.2c28-4.1,57.3,1.8,83.2,14
			c31.7,14.9,54.1,48,62,81.5C704.5,1179,704.1,1205.3,695.1,1229.3L695.1,1229.3L695.1,1229.3z"/>
		<path class="st5" d="M663.7,1171.5c-2.1-14.8-8-29.1-17-41.1c-3.4-4.5-7.3-8.8-11.7-12.4c-3.6-3-7.6-5.6-11.7-8
			c-9.2-5.4-18.7-9.6-29.2-11.6c-0.9-0.2-1.8-0.3-2.6-0.5c-9.6-1.5-19.3-1.5-28.9,0c-7.5,1.2-15,3-22.1,5.7c-2.6,1-5.1,2.1-7.6,3.3
			c-7.1,3.7-13.4,8.8-18.3,15.1c-2.9,3.7-5.4,7.9-6,12.6c-1,7.2,2.8,14.4,8.2,19.3c5.4,4.9,12.1,8,18.8,10.9
			c16.9,7.5,32.3,18.2,44.6,32.1c5.9,6.7,11.2,14,15.5,21.9c5.5,10,10.2,23.4,21,28.8c7.2,3.6,16.3,2.5,23-1.8
			c3.8-2.4,6.9-5.7,9.5-9.3c1.6-2.2,3.1-4.6,4.4-7C663.5,1211.9,666.5,1191.5,663.7,1171.5L663.7,1171.5L663.7,1171.5z M631.4,1190
			c-1.6,11.6-9.9,29.7-24.6,23.9c-7-2.8-11.1-9.5-15.4-15.2c-4.5-5.9-9-11.9-14.5-17c-6.7-6.3-14.6-11-22.1-16.3
			c-3.4-2.4-7-4.6-8.9-8.4c-1.7-3.7-1.9-8.1-0.2-11.8c0.9-2,2.2-3.8,3.7-5.3c6.2-6.5,15.3-9,23.9-10c2.4-0.3,4.9-0.4,7.3-0.3
			c7.5,0.2,15,1.9,21.7,5.2c2.9,1.4,5.7,3.1,8.3,5C626.5,1151.3,634.1,1170.6,631.4,1190L631.4,1190L631.4,1190z"/>
	</g>
</g>
</svg>
