<?xml version="1.0" encoding="UTF-8"?>
<svg xmlns="http://www.w3.org/2000/svg" viewBox="0 0 1125 2436">
  <defs>
    <style>
      .cls-1, .cls-2 {
        fill: #d85656;
      }

      .cls-2 {
        opacity: .5;
      }
    </style>
  </defs>
  <g id="_レイヤー_1" data-name="レイヤー 1">
    <path class="cls-1" d="M562.2106,899.52484c-165.88314,0-300.35953,134.47639-300.35953,300.35953s134.47639,300.35953,300.35953,300.35953,300.35951-134.47638,300.35951-300.35953-134.47638-300.35953-300.35951-300.35953Zm257.85441,391.47516c-12.14957,33.73522-30.29447,67.08542-54.72805,93.50522-9.38106,10.145-20.04556,19.1655-31.8101,26.4198-28.99273,17.876-66.43149,23.81023-97.64268,7.59041-14.38026-7.47429-27.25098-19.70943-36.51593-33.02016-6.13588-8.81882-11.25117-18.29157-15.99978-27.91711-15.4742-31.38229-24.0669-66.70651-44.05746-95.77258-2.75627-4.00911-5.74476-7.8532-8.94717-11.51399-11.3673-12.99907-24.76971-22.00734-39.62665-30.47169-15.99368-9.11216-34.45025-12.79126-51.73956-18.82326-8.14046-2.84182-16.00589-5.812-24.20747-8.44603-8.87994-2.84794-17.77821-5.80588-26.05923-10.15111-11.844-6.20924-22.70405-14.23968-32.31124-23.53521-12.66293-12.25345-22.55737-29.12718-26.63982-46.34925-6.00756-25.35031,.12223-51.96568,12.95017-74.26636,11.48953-19.97222,28.03323-36.6626,46.15369-50.89617,27.88656-21.90344,59.2933-37.44487,92.94907-48.26825,23.02183-7.40097,47.68766-10.74393,71.90735-11.1534,1.99844-.03667,3.99689-.04889,5.98922-.04278,37.90322,.09778,75.84924,7.88377,110.71507,22.74683,32.4518,13.83021,61.79288,33.71688,86.59928,58.88383,22.03789,22.3618,40.27448,48.49438,53.3652,77.04708,15.10749,32.94072,23.93855,68.80884,24.48859,105.09254,.26279,17.38097-1.09394,34.76806-3.75856,51.94122-2.49348,16.24425-5.48195,31.89567-11.06783,47.40042h-.00612Z"/>
    <path class="cls-1" d="M770.48888,1128.72109c-7.24817-20.29613-17.71709-39.36386-30.33726-56.81205-27.81322-38.45936-67.64766-67.90434-113.28187-81.45343-35.8009-10.62781-75.09753-13.39019-111.85181-6.48425-13.86689,2.60348-27.56875,6.63093-40.97118,12.22901-6.52093,2.72571-12.9196,5.73865-19.19607,8.97772-16.34813,8.44603-31.50453,19.28774-44.51581,32.32347-12.28402,12.30846-24.07912,27.0065-29.64665,43.74577-6.13589,18.45659-4.90139,39.22329,6.42925,55.30252,9.59498,13.6102,22.16624,25.06917,36.47314,33.57632,14.15413,8.40936,30.47781,13.19462,46.06813,18.18769,16.20756,5.19473,32.00567,11.97845,46.25758,21.35341,32.70239,21.51844,49.28886,57.18486,65.86923,91.10342,6.63703,13.57963,13.31076,27.22039,21.90954,39.65722,8.59882,12.42459,19.26943,23.69411,32.43348,31.11339,11.44062,6.45369,24.78193,9.68056,37.891,7.98155,11.71564-1.51563,21.75067-7.60877,31.33343-14.25191,19.40998-13.45131,35.44642-31.47398,47.54709-51.69067,5.22528-8.73325,9.73554-17.90043,13.47574-27.36706,19.45276-49.21554,21.97068-107.50044,4.11911-157.49213h-.00608Zm-49.85112,132.39239c-11.02505,29.37164-37.14542,78.25714-75.11588,71.85846-11.56897-1.94955-22.06233-8.31156-30.55114-16.41535-21.58565-20.61392-28.3999-49.35609-44.61972-73.48409-25.0814-37.29819-66.93262-56.81817-105.99703-75.59255-12.74848-6.12979-27.3732-13.21296-34.85361-25.827-5.3964-9.09996-7.51098-20.10667-5.86088-30.55726,1.61953-10.27947,6.72871-19.78888,13.40853-27.77044s14.89361-14.53915,23.41909-20.51003c8.4277-5.90366,17.25873-11.25729,26.50536-15.77977,14.2947-6.98539,29.2983-11.41619,44.57693-13.63465,37.42653-5.43308,76.52758,2.43236,111.00842,18.70105,42.28514,19.95389,72.18235,64.0847,82.79182,108.75939,7.8532,33.08741,7.31539,68.22214-4.70583,100.25225h-.00608Z"/>
    <path class="cls-1" d="M678.66431,1183.93806c-2.79906-19.81334-10.64614-38.91162-22.67347-54.9114-4.55304-6.06257-9.70499-11.69733-15.55365-16.53147-4.87081-4.02744-10.20001-7.48041-15.65754-10.67671-12.27792-7.20541-24.97138-12.81572-39.00941-15.4192-1.17339-.22-2.34681-.41557-3.52632-.60503-12.7546-1.98622-25.81477-1.9801-38.56327,.04278-10.04111,1.59508-19.96612,4.02744-29.48776,7.66377-3.43463,1.30786-6.8265,2.75627-10.09611,4.44914-9.4483,4.88304-17.83933,11.80121-24.43969,20.14946-3.89911,4.92583-7.24817,10.54837-8.06712,16.77594-1.27117,9.62554,3.80132,19.22052,10.95173,25.79643,7.15041,6.57593,16.17701,10.66449,25.05695,14.59415,22.55125,9.98611,43.13462,24.36024,59.54999,42.84738,7.93267,8.93494,14.89362,18.74381,20.65672,29.21885,7.32763,13.31684,13.6041,31.17452,28.05158,38.50215,9.59499,4.86473,21.69565,3.40408,30.74671-2.42015,5.0114-3.22686,9.17941-7.64543,12.6935-12.45514,2.18791-2.99463,4.14358-6.14812,5.94031-9.38718,13.20072-23.74298,17.19763-50.92674,13.42684-77.62156v-.01222Zm-43.11017,24.70861c-2.16956,15.44365-13.17629,39.70612-32.88572,31.84677-9.29553-3.70354-14.79584-12.74236-20.57725-20.35113-6.01977-7.92046-12.03957-15.92644-19.34274-22.74071-8.95327-8.35436-19.51998-14.65527-29.43887-21.74454-4.51637-3.22685-9.40553-6.17257-11.83176-11.27564-2.32234-4.89528-2.5118-10.82338-.25669-15.77366,1.19784-2.62792,2.89072-5.0114,4.88304-7.09539,8.25046-8.62937,20.42448-12.02733,31.914-13.34129,3.24518-.37279,6.52093-.51336,9.79054-.43391,10.00446,.24445,19.96612,2.58515,28.98663,6.93038,3.88687,1.87622,7.59041,4.11911,11.06171,6.67981,21.15173,15.60254,31.33951,41.39287,27.69711,67.29933v-.00004Z"/>
  </g>
  <g id="_レイヤー_2" data-name="レイヤー 2">
    <rect class="cls-2" width="1125" height="2436"/>
  </g>
</svg>